<svg width="104" height="70" viewBox="0 0 104 70" fill="none" xmlns="http://www.w3.org/2000/svg">
<path d="M60.8777 24.8544C59.8718 20.6911 56.1168 17.7502 51.7393 17.7457C45.8778 17.7412 40.0164 17.7638 34.1527 17.7751C33.2979 17.7773 32.8604 17.5157 32.6439 16.882C32.4296 16.2573 32.6281 15.7566 33.3047 15.2491C39.7164 10.4499 46.1282 5.64843 52.5445 0.853713C54.1028 -0.31001 56.3626 -0.280691 57.9594 0.921372C64.5064 5.85817 71.049 10.7972 77.5848 15.7476C78.8072 16.6745 79.3371 17.9645 79.3371 19.4755C79.3416 29.4709 79.3439 39.4663 79.3394 49.4617C79.3394 50.6367 78.9244 51.6606 78.0922 52.5063C77.2465 53.3656 76.2001 53.7603 75.0183 53.846C74.7747 53.864 74.5289 53.855 74.2853 53.855C59.9305 53.855 45.5756 53.8572 31.2185 53.8505C30.86 53.8505 30.6186 53.8911 30.4089 54.2564C29.6308 55.6231 28.0364 56.2523 26.5434 55.8419C25.0594 55.4337 24.0355 54.1076 24.0152 52.5627C23.9949 51.0314 25.003 49.6579 26.4667 49.2226C27.9574 48.7784 29.5632 49.3692 30.3683 50.7224C30.5938 51.099 30.8171 51.2163 31.2411 51.2163C40.1652 51.2028 49.0916 51.2118 58.0158 51.205C63.3517 51.2005 67.8285 47.9574 69.4726 42.9304C71.1505 37.8019 68.7892 31.8164 64.0734 29.2138C63.7306 29.0244 63.6427 29.0311 63.5592 29.4506C62.5782 34.3897 58.4623 38.271 53.512 38.9544C53.3473 38.9769 53.1759 38.9656 53.009 38.9679C52.8647 39.0288 52.7136 39.0062 52.5647 39.0062C46.4372 39.0062 40.3096 39.0062 34.182 39.0062C34.0512 39.0062 33.9181 39.022 33.7918 38.9724C33.4513 38.2169 33.6137 37.4321 33.6813 36.6585C33.7016 36.424 33.9226 36.345 34.1436 36.3247C34.3872 36.3044 34.6308 36.3112 34.8744 36.3112C40.4629 36.3112 46.0515 36.3112 51.6401 36.3112C51.94 36.3112 52.24 36.327 52.5377 36.2886C54.8268 36.0022 56.8272 35.1024 58.4397 33.4289C59.7658 32.0532 60.5597 30.4001 60.8867 28.5192C60.9138 28.3681 60.916 28.2215 60.8912 28.0727C60.5574 27.0037 60.6837 25.9301 60.8777 24.8544Z" fill="black"/>
<path d="M52.7451 36.3698C52.4316 36.5412 52.0866 36.4758 51.7573 36.4758C45.9816 36.4803 40.2035 36.4848 34.4278 36.469C33.9361 36.4668 33.7219 36.5615 33.7715 37.1028C33.8279 37.7162 33.7986 38.3387 33.8076 38.9566C33.8437 38.9859 33.8549 39.0107 33.8391 39.0356C33.8256 39.0581 33.8121 39.0716 33.7985 39.0716C33.767 39.1167 33.7354 39.1619 33.7038 39.207C33.5798 39.2836 33.6294 39.4077 33.6294 39.5114C33.6271 41.16 33.6271 42.8109 33.6294 44.4595C33.6294 44.579 33.5663 44.7256 33.7151 44.8158C33.7444 44.8429 33.7737 44.8722 33.8031 44.8993C33.9722 45.0842 34.1932 44.985 34.3849 44.985C41.3943 44.9917 48.4037 44.9895 55.4109 44.9895C56.1438 44.9895 56.1799 45.0053 56.1619 45.7473C56.1484 46.3021 56.2927 46.8726 56.0446 47.4117C55.8484 47.5109 55.6387 47.4635 55.4357 47.4635C47.5715 47.4658 39.7051 47.4658 31.841 47.4658C31.0674 47.4658 31.1531 47.5289 31.1509 46.7689C31.1486 44.4415 31.1486 42.1163 31.1554 39.7888C31.1576 39.7144 31.0336 39.7866 31.1058 39.773C31.1351 39.7685 31.1509 39.7775 31.1509 39.8046C31.1396 42.3012 31.1509 44.7955 31.1463 47.2921C31.1463 47.3688 31.1351 47.441 31.0922 47.5064C30.9276 47.3305 31.0133 47.114 31.0133 46.9178C31.0065 44.5023 30.9975 42.0847 31.0178 39.6693C31.0223 39.243 30.8938 39.1348 30.4788 39.1393C28.5866 39.1596 26.6944 39.1506 24.8022 39.1461C24.6038 39.1461 24.3895 39.2115 24.2023 39.0784C24.2971 38.9972 24.4143 39.0175 24.5248 39.0175C26.5117 39.0153 28.5009 39.0175 30.4878 39.0153C30.5555 39.0153 30.6186 39.0288 30.569 39.013C28.5911 39.013 26.5005 39.013 24.4098 39.013C24.3332 39.013 24.261 39.0265 24.2023 39.0784C24.0625 38.9859 24.1144 38.8416 24.1144 38.7198C24.1121 36.1736 24.1121 33.6274 24.1144 31.0789C24.1144 30.9572 24.0648 30.8128 24.2023 30.7203C24.3918 30.8466 24.6038 30.7812 24.8045 30.7812C26.7643 30.788 28.7219 30.7835 30.6818 30.7835C28.7242 30.7812 26.7643 30.7835 24.8068 30.779C24.606 30.779 24.394 30.8376 24.2023 30.7203C24.3895 30.5873 24.6015 30.6527 24.8022 30.6527C26.6967 30.6459 28.5911 30.6369 30.4855 30.6595C30.9141 30.664 31.0223 30.5332 31.0155 30.1182C30.993 28.6184 31.0043 27.1187 31.0088 25.6167C31.0088 25.4362 30.9456 25.24 31.0787 25.0754C31.2208 25.4385 31.1351 25.8151 31.1373 26.185C31.1486 27.4412 31.1463 28.6974 31.1418 29.9558C31.1463 28.5553 31.1441 27.1548 31.1463 25.7565C31.1463 25.1498 31.1486 25.1498 31.762 25.1498C41.0583 25.1498 50.3545 25.1498 59.653 25.1498C59.8132 25.1498 59.9733 25.1611 60.1019 25.1476C50.5733 25.1476 41.0132 25.1476 31.4553 25.1476C31.3268 25.1476 31.1892 25.1836 31.0787 25.0844C31.2749 24.9153 31.5094 25.0032 31.7237 25.0032C41.2162 24.9987 50.7109 25.001 60.2033 24.9942C60.4289 24.9942 60.6972 25.116 60.8777 24.8589C61.0648 25.0371 60.9205 25.2333 60.916 25.425C60.9025 26.1895 60.9228 26.954 60.9002 27.7163C60.8957 27.8832 61.0446 27.9193 61.0581 28.0456C60.9453 28.1313 60.8145 28.129 60.6815 28.129C51.8678 28.0569 43.052 28.111 34.2383 28.102C34.0895 28.102 33.9384 28.1155 33.7918 28.0704C33.7783 28.0591 33.7625 28.0479 33.7467 28.0388C33.7354 28.0321 33.7219 28.0275 33.7083 28.0208C33.7512 30.5557 33.7151 33.0884 33.7264 35.6233C33.7264 35.8173 33.7399 36 33.9203 36.1195C34.2135 36.221 34.518 36.1849 34.8157 36.1849C40.4494 36.1871 46.083 36.1849 51.7167 36.1894C52.0686 36.1849 52.4429 36.0969 52.7451 36.3698Z" fill="#767475"/>
<path d="M3.76518 62.7047C4.38088 62.7273 4.95823 62.8806 5.42281 63.3001C6.27982 64.0714 6.04978 65.4832 4.99882 65.9681C4.93342 65.9997 4.85223 66.0064 4.79585 66.0944C5.09806 66.1869 5.37771 66.3064 5.61451 66.5139C6.45122 67.2446 6.55947 69.0781 4.89282 69.6893C4.45981 69.8472 4.01101 69.9171 3.55319 69.9171C2.45712 69.9216 1.3588 69.9126 0.262739 69.9239C0.057509 69.9261 0.0078935 69.8697 0.0078935 69.6668C0.0146593 67.4047 0.0124038 65.1427 0.0146591 62.8829C0.0146591 62.8107 -0.0439777 62.7092 0.0732968 62.6641C0.131934 62.7634 0.102615 62.8739 0.102615 62.9776C0.10487 65.1494 0.102616 67.319 0.107126 69.4909C0.107126 69.5901 0.0529986 69.7051 0.158997 69.7885C1.42872 69.7998 2.69844 69.7863 3.97042 69.7885C3.87795 69.7998 3.78548 69.7908 3.69302 69.7908C2.60823 69.7908 1.52344 69.7908 0.438651 69.7908C0.334908 69.7908 0.224399 69.8156 0.125167 69.7637C0.0935933 69.678 0.107126 69.5901 0.107126 69.5044C0.107126 67.3348 0.107126 65.1652 0.107126 62.9934C0.107126 62.6844 0.107125 62.6844 0.425119 62.6844C1.44225 62.6844 2.45938 62.6844 3.47651 62.6844C3.57349 62.6844 3.67272 62.6686 3.76518 62.7047Z" fill="black"/>
<path d="M46.8006 65.1245C46.8006 64.1999 46.8051 63.3384 46.7961 62.4768C46.7938 62.2964 46.8254 62.222 47.0284 62.231C47.4163 62.2491 47.8042 62.2423 48.1921 62.2333C48.3409 62.2288 48.3883 62.2694 48.3883 62.425C48.3838 64.8516 48.3815 67.2783 48.3883 69.7027C48.3883 69.8944 48.3207 69.926 48.1515 69.9215C47.7726 69.9102 47.3937 69.908 47.0171 69.9215C46.8299 69.9283 46.7803 69.8629 46.7961 69.6892C46.8096 69.5291 46.7983 69.3645 46.7983 69.1728C46.6743 69.2878 46.5773 69.387 46.4713 69.475C45.4316 70.3433 43.6522 70.0861 42.9125 68.9089C42.1998 67.7722 42.1976 66.5612 42.8561 65.4019C43.6094 64.0894 45.7654 63.8526 46.8006 65.1245Z" fill="black"/>
<path d="M101.755 69.1345C101.022 70.0028 100.138 70.1358 99.1769 69.8652C98.1801 69.5855 97.6276 68.8616 97.4381 67.876C97.2645 66.9762 97.3456 66.1034 97.8711 65.3073C98.6966 64.0578 100.807 63.9406 101.651 65.0254C101.667 65.0456 101.692 65.0614 101.719 65.084C101.793 65.0073 101.755 64.9171 101.755 64.8382C101.759 64.0421 101.759 63.2459 101.755 62.4498C101.752 62.3032 101.766 62.2266 101.949 62.2333C102.346 62.2491 102.745 62.2423 103.142 62.2356C103.286 62.2333 103.34 62.2626 103.34 62.425C103.336 64.8607 103.336 67.2964 103.34 69.7344C103.34 69.8922 103.286 69.9283 103.139 69.9261C102.743 69.9171 102.343 69.9148 101.946 69.9261C101.784 69.9306 101.748 69.8674 101.757 69.7231C101.764 69.5494 101.755 69.3758 101.755 69.1345Z" fill="black"/>
<path d="M18.9973 69.7074C19.11 69.8404 19.1552 69.9306 18.9048 69.9239C18.429 69.9126 17.9531 69.9126 17.4795 69.9239C17.3126 69.9284 17.2201 69.8765 17.1344 69.7299C16.7781 69.1097 16.3992 68.5008 16.0451 67.8783C15.9436 67.7024 15.9098 67.6754 15.7316 67.8242C15.2964 68.1918 15.0957 68.6181 15.1814 69.1909C15.2152 69.4164 15.2648 69.7322 15.1475 69.8652C15.01 70.0231 14.692 69.9081 14.4529 69.9148C14.1823 69.9216 13.8237 70.0096 13.6658 69.872C13.4831 69.7141 13.6094 69.3443 13.6094 69.0669C13.6049 66.8747 13.6117 64.6826 13.6004 62.4882C13.5981 62.2582 13.6658 62.2176 13.871 62.2289C14.2206 62.2446 14.5702 62.2514 14.9175 62.2266C15.1611 62.2086 15.1949 62.3055 15.1926 62.5175C15.1836 63.7106 15.1881 64.9036 15.1881 66.0967C15.1881 66.1891 15.1881 66.2816 15.1881 66.3876C15.5039 66.0854 15.797 65.808 16.0857 65.5283C16.2255 65.393 16.3789 65.2667 16.4894 65.1088C16.9427 64.4571 17.5494 64.2067 18.332 64.3398C18.5462 64.3759 18.7718 64.3443 18.995 64.3443C18.9995 64.4413 18.9251 64.4638 18.8823 64.5067C18.6432 64.6939 18.4019 64.8811 18.2621 65.163C17.899 65.5509 17.5449 65.9478 17.1705 66.3222C17.0307 66.462 17.0374 66.5545 17.1367 66.7078C17.7321 67.6551 18.3184 68.6113 18.9071 69.563C18.9138 69.6555 18.9589 69.775 18.8033 69.7795C18.3342 69.7886 17.8651 69.7818 17.396 69.784C17.8516 69.784 18.3094 69.7795 18.765 69.7885C18.8642 69.7976 18.9161 69.7254 18.9973 69.7074Z" fill="black"/>
<path d="M10.5628 69.3374C9.94263 69.9328 9.20065 70.0772 8.38423 69.9486C7.52272 69.8111 6.97243 69.2066 6.93635 68.3541C6.89801 67.4701 7.34681 66.886 8.24892 66.6672C8.83078 66.5251 9.42843 66.595 10.0171 66.5792C10.0757 66.577 10.1343 66.5792 10.1907 66.5792C10.626 66.5792 10.6869 66.48 10.5065 66.0718C10.3711 65.7673 10.114 65.6275 9.8028 65.5711C9.16231 65.4561 8.56917 65.623 8.0076 65.9072C7.82042 66.0019 7.72569 65.9996 7.64901 65.7854C7.56106 65.5396 7.45055 65.3028 7.33328 65.0705C7.27238 64.9509 7.30396 64.9036 7.41221 64.8517C8.52181 64.324 9.66974 64.0939 10.8786 64.4548C11.6228 64.6758 12.1303 65.3479 12.1393 66.1259C12.1551 67.319 12.146 68.512 12.1573 69.7073C12.1596 69.899 12.0897 69.9306 11.9205 69.9261C11.5619 69.9148 11.2011 69.908 10.8447 69.9283C10.6305 69.9396 10.5764 69.8607 10.5944 69.6645C10.6057 69.563 10.6327 69.4547 10.5628 69.3374Z" fill="black"/>
<path d="M78.9629 67.5986C77.8465 67.6032 76.7324 67.6077 75.6161 67.6144C75.4221 67.6144 75.2281 67.6144 75.0342 67.6144C75.0861 68.2437 75.7672 68.8097 76.5565 68.7421C76.9737 68.7082 77.3571 68.5752 77.6706 68.3C77.833 68.1579 77.9164 68.1873 78.0405 68.3316C78.1916 68.5075 78.3517 68.6789 78.5321 68.8255C78.708 68.9699 78.6562 69.0578 78.5141 69.1818C77.6007 69.9757 76.5452 70.1246 75.4063 69.8674C74.8019 69.7321 74.3012 69.4141 73.9269 68.909C72.9841 67.637 73.3179 65.5847 74.6057 64.7457C75.7717 63.9857 77.612 64.1954 78.4126 65.1855C78.7847 65.6456 78.9471 66.1868 78.9787 66.7709C79.0576 67.5152 79.0576 67.5152 78.3314 67.5152C77.2759 67.5152 76.2182 67.5152 75.1627 67.5152C76.3896 67.5152 77.6165 67.5152 78.8434 67.5175C78.8952 67.5197 78.9606 67.5129 78.9629 67.5986Z" fill="black"/>
<path d="M53.8549 64.351C54.2812 64.351 54.7074 64.351 55.1359 64.351C55.1788 64.4119 55.1653 64.4818 55.1653 64.5472C55.163 66.277 55.1698 68.0068 55.163 69.7343C54.8879 69.8539 54.5969 69.784 54.3173 69.784C53.767 69.7862 53.8347 69.9125 53.8279 69.272C53.8279 69.254 53.8347 69.2359 53.8279 69.2404C53.8437 69.7907 53.8437 69.793 54.4075 69.7907C54.6488 69.7885 54.8901 69.8043 55.1292 69.7794C55.2013 69.6847 55.163 69.5742 55.163 69.4705C55.1653 67.867 55.1653 66.2635 55.1675 64.66C55.1675 64.5562 55.1405 64.448 55.1946 64.3465C55.3299 64.3713 55.2758 64.4818 55.2758 64.554C55.2803 66.2725 55.2758 67.991 55.2825 69.7073C55.2825 69.8674 55.2487 69.926 55.0751 69.9215C54.6781 69.908 54.2789 69.9125 53.882 69.9193C53.7422 69.9215 53.6948 69.8764 53.6993 69.7366C53.7084 69.5043 53.7016 69.272 53.7016 68.9495C53.3813 69.4524 53.0025 69.7546 52.4995 69.8967C51.4801 70.1831 50.4675 69.7975 50.0525 68.954C49.9037 68.6541 49.8293 68.3316 49.8293 68C49.8225 66.8363 49.8248 65.6703 49.827 64.5066C49.827 64.4502 49.7842 64.3623 49.8947 64.3465C49.933 64.3983 49.924 64.457 49.924 64.5156C49.924 65.6703 49.9263 66.8228 49.924 67.9775C49.9263 66.8724 49.924 65.7673 49.9263 64.6622C49.9263 64.5585 49.8992 64.448 49.9533 64.3487C50.3705 64.3442 50.7878 64.351 51.2027 64.3329C51.3922 64.3239 51.4238 64.3916 51.4215 64.563C51.4125 65.4741 51.417 66.3852 51.4193 67.2964C51.4215 68.0474 51.7508 68.4714 52.3687 68.5233C52.9934 68.5774 53.537 68.1421 53.6632 67.4768C53.6948 67.3077 53.7016 67.1295 53.7016 66.9558C53.7061 66.171 53.6993 65.3862 53.7084 64.6013C53.7084 64.5179 53.6249 64.3803 53.7986 64.3487C53.8617 64.5765 53.8234 64.8111 53.8256 65.0411C53.8324 65.8079 53.8279 66.5724 53.8279 67.3392C53.8301 66.4484 53.8279 65.5553 53.8301 64.6645C53.8279 64.5607 53.8008 64.4502 53.8549 64.351Z" fill="black"/>
<path d="M24.1645 69.3036C23.418 69.9193 22.5497 70.0433 21.6228 69.9486C20.5177 69.8359 19.6336 69.1458 19.3404 68.0813C18.9458 66.6447 19.4194 65.1268 20.7973 64.5495C21.6295 64.1999 22.4865 64.1954 23.321 64.5202C24.2502 64.8833 24.6493 65.6568 24.7847 66.5928C24.8207 66.8499 24.8095 67.116 24.8298 67.3776C24.8456 67.567 24.7734 67.6189 24.5839 67.6189C23.418 67.6099 22.2542 67.6212 21.0883 67.6076C20.8176 67.6054 20.8041 67.6821 20.9033 67.8963C21.307 68.7669 22.4211 69.0149 23.321 68.4263C23.3774 68.3902 23.4405 68.3564 23.4834 68.3068C23.6345 68.1331 23.7517 68.1647 23.851 68.3564C23.8826 68.5007 24.0043 68.5752 24.0968 68.6721C24.4035 68.9811 24.4058 68.9789 24.1645 69.3036Z" fill="black"/>
<path d="M41.4938 66.3266C41.4984 67.461 41.5006 68.5954 41.5096 69.7298C41.5119 69.8855 41.4578 69.9283 41.3089 69.9238C40.921 69.9148 40.5331 69.908 40.1452 69.9261C39.9422 69.9351 39.9061 69.8629 39.9084 69.6802C39.9174 68.857 39.9129 68.0316 39.9129 67.2062C39.9129 67.1385 39.9129 67.0709 39.9129 67.0032C39.9084 66.2184 39.543 65.7741 38.8845 65.7493C38.1538 65.7222 37.5787 66.2116 37.5516 66.9491C37.5178 67.8196 37.5223 68.6947 37.5426 69.5675C37.5494 69.8652 37.4727 69.9509 37.1795 69.9261C36.8322 69.8967 36.4804 69.9125 36.1331 69.9238C35.9774 69.9283 35.9368 69.8787 35.9391 69.7276C35.9436 67.991 35.9414 66.2545 35.9436 64.5201C35.9436 64.4593 35.8872 64.351 36.0271 64.351C36.0834 64.4502 36.0541 64.5607 36.0541 64.6645C36.0564 66.2793 36.0609 67.894 36.0496 69.5111C36.0474 69.7456 36.1173 69.8133 36.3428 69.7975C36.6224 69.7795 36.9044 69.7952 37.184 69.7907C37.2562 69.7907 37.3419 69.8246 37.3938 69.7366C37.405 68.8751 37.3915 68.0113 37.4005 67.1498C37.3757 68.0249 37.4366 68.8999 37.3667 69.7727C36.9901 69.8088 36.6112 69.7749 36.2345 69.7907C36.0022 69.7997 36.0586 69.6374 36.0586 69.5133C36.0564 67.9933 36.0564 66.4732 36.0586 64.9532C36.0586 64.7524 36.0225 64.5472 36.0857 64.3487C36.5029 64.3442 36.9179 64.3487 37.3351 64.3352C37.5133 64.3284 37.5449 64.4051 37.5358 64.5562C37.5246 64.7682 37.5336 64.9802 37.5336 65.1922C37.6373 65.2148 37.6463 65.1246 37.6824 65.0794C38.3793 64.2134 39.7934 64.0105 40.7022 64.6487C41.0744 64.9103 41.3044 65.2689 41.3946 65.7154C41.3473 66.0086 41.3991 66.3018 41.3924 66.595C41.3743 67.54 41.3878 68.4872 41.3833 69.4321C41.3833 69.5449 41.4127 69.6644 41.3337 69.7682C40.9661 69.811 40.5962 69.7682 40.2309 69.7907C40.0324 69.8043 40.0144 69.7028 40.0144 69.5449C40.0189 68.7691 40.0166 67.9933 40.0166 67.2152C40.0166 67.1092 40.0166 67.001 40.0166 66.895C40.0166 67.3325 40.0144 67.7677 40.0144 68.2053C40.0144 68.6608 40.0189 69.1164 40.0121 69.5742C40.0099 69.7344 40.055 69.7997 40.2241 69.793C40.5444 69.7817 40.8646 69.7907 41.1849 69.7885C41.2616 69.7885 41.345 69.8043 41.3743 69.7005C41.3991 68.6811 41.3743 67.664 41.3878 66.6446C41.3924 66.5386 41.3179 66.3853 41.4938 66.3266Z" fill="black"/>
<path d="M81.8858 64.2721C82.6458 64.2879 83.2863 64.448 83.893 64.7547C84.0666 64.8427 84.1478 64.9216 84.0193 65.1223C83.884 65.3321 83.787 65.5666 83.681 65.7944C83.6133 65.941 83.5524 65.9839 83.3833 65.8891C82.957 65.6546 82.5037 65.4899 82.0098 65.4516C81.9715 65.4493 81.9331 65.4448 81.8948 65.4448C81.5091 65.4426 81.2633 65.5666 81.2453 65.7967C81.2182 66.1372 81.4866 66.2274 81.7324 66.3154C82.179 66.4732 82.6368 66.5995 83.0766 66.7709C83.8501 67.0709 84.1929 67.5851 84.1636 68.3406C84.1365 69.0285 83.6877 69.6036 82.9593 69.8156C81.7978 70.1561 80.7018 69.9802 79.6688 69.351C79.4997 69.2472 79.4794 69.157 79.5809 68.9901C79.6959 68.8007 79.7861 68.5955 79.8696 68.388C79.9485 68.1873 80.0162 68.1376 80.2259 68.2775C80.7491 68.6293 81.331 68.8278 81.9715 68.821C82.0301 68.821 82.091 68.8255 82.1451 68.812C82.3526 68.7601 82.5781 68.7218 82.6278 68.4624C82.6774 68.1873 82.4924 68.0564 82.2805 67.9572C81.8745 67.77 81.4302 67.6956 81.0152 67.5377C80.4988 67.3415 80.0116 67.1002 79.8312 66.5183C79.5065 65.4854 80.1334 64.5405 81.2746 64.3375C81.5024 64.2992 81.7324 64.2563 81.8858 64.2721Z" fill="black"/>
<path d="M56.9985 64.863C57.4924 64.3781 58.1171 64.2744 58.7689 64.2789C59.459 64.2834 60.1063 64.4593 60.7175 64.7863C60.8596 64.863 60.8911 64.9216 60.8099 65.0682C60.6543 65.3479 60.5889 65.7493 60.3566 65.8937C60.1266 66.0358 59.8244 65.6907 59.5335 65.6095C59.1749 65.5125 58.823 65.4088 58.4487 65.4584C58.2457 65.4855 58.063 65.5621 58.0134 65.7809C57.9615 66.0155 58.1239 66.135 58.3021 66.232C58.5862 66.3853 58.9042 66.4417 59.2042 66.5454C59.4229 66.6221 59.6485 66.6875 59.8627 66.7755C60.6295 67.0935 60.9588 67.5784 60.9295 68.3294C60.9024 69.0285 60.4762 69.5923 59.7409 69.8133C58.5817 70.1607 57.4812 69.9847 56.4482 69.3578C56.2836 69.2585 56.243 69.1548 56.3535 68.9856C56.4324 68.8661 56.4866 68.7286 56.552 68.6C56.6647 68.5797 56.6241 68.4782 56.6512 68.4128C56.6467 68.3925 56.6512 68.3767 56.667 68.3654C56.764 68.3564 56.7775 68.1918 56.9038 68.2369C56.9218 68.2346 56.9354 68.2414 56.9421 68.2595C56.9647 68.3249 57.0211 68.3406 57.0775 68.3542C57.5984 68.618 58.1329 68.8368 58.7328 68.821C58.8005 68.8188 58.8704 68.8255 58.9358 68.8097C59.1501 68.7624 59.3643 68.6992 59.4049 68.4444C59.4455 68.185 59.2606 68.0587 59.0644 67.964C58.6629 67.7701 58.2164 67.7002 57.8014 67.5445C57.2218 67.3258 56.6941 67.0439 56.561 66.365C56.4708 65.8937 56.5227 65.4404 56.8384 65.0457C56.9264 65.0186 56.9737 64.9532 56.9985 64.863Z" fill="black"/>
<path d="M89.3394 62.6664C89.4656 62.7363 89.398 62.8536 89.398 62.9438C89.4025 64.7006 89.407 66.4552 89.3957 68.2121C89.3935 68.4444 89.4589 68.5008 89.6844 68.4963C90.5369 68.4827 91.3917 68.5008 92.2464 68.485C92.4764 68.4805 92.5216 68.5504 92.5103 68.7601C92.4922 69.0804 92.499 69.4006 92.508 69.7209C92.5125 69.8652 92.481 69.9261 92.3186 69.9261C90.8639 69.9194 89.407 69.9216 87.9524 69.9239C87.8306 69.9239 87.7539 69.9126 87.7562 69.757C87.7652 67.4092 87.7674 65.0637 87.7742 62.716C88.2501 62.6483 88.7282 62.7025 89.204 62.6889C89.2604 62.6867 89.292 62.7183 89.283 62.7791C88.9266 62.8288 88.568 62.8062 88.2117 62.7949C87.9749 62.7882 87.9027 62.8536 87.905 63.0994C87.914 65.3028 87.9118 67.504 87.9095 69.7074C87.9118 69.8404 88.0155 69.7931 88.0809 69.7931C89.4476 69.7953 90.8143 69.7931 92.181 69.7976C92.3411 69.7976 92.4088 69.7547 92.402 69.5856C92.3907 69.3555 92.3975 69.1232 92.402 68.8301C92.402 68.8526 92.3389 68.8955 92.375 68.8864C92.3862 68.8842 92.393 68.8887 92.393 68.9022C92.402 69.1345 92.3907 69.3646 92.3975 69.5969C92.402 69.7231 92.3727 69.7953 92.2239 69.7953C90.8098 69.7908 89.3935 69.7998 87.9794 69.7885C87.9614 69.7885 87.9456 69.7728 87.9275 69.7637C87.8937 69.5608 87.914 69.3578 87.914 69.1548C87.9118 67.1386 87.9163 65.1224 87.9073 63.1084C87.9073 62.8671 87.9727 62.7837 88.214 62.8017C88.4733 62.822 88.7372 62.8175 88.9988 62.8017C89.2198 62.7882 89.2852 62.8761 89.283 63.0859C89.2762 63.8121 89.283 64.5405 89.2807 65.2667C89.2785 66.2072 89.292 67.1454 89.2739 68.0791C89.2897 66.4237 89.2762 64.7728 89.283 63.122C89.2807 62.9663 89.2627 62.8085 89.3394 62.6664Z" fill="black"/>
<path d="M63.76 63.0678C63.9066 63.1106 63.8299 63.2302 63.8321 63.3091C63.8412 63.6677 63.8434 64.0263 63.8321 64.3849C63.8276 64.5472 63.875 64.6081 64.0441 64.6014C64.4117 64.5901 64.7816 64.6036 65.1492 64.5946C65.2981 64.5901 65.3567 64.6307 65.3499 64.7886C65.3387 65.0299 65.3364 65.2734 65.3499 65.5148C65.359 65.6771 65.2935 65.7065 65.1492 65.7042C64.7816 65.6952 64.4117 65.7087 64.0441 65.6974C63.8772 65.6929 63.8299 65.7493 63.8321 65.9117C63.8412 66.5612 63.8344 67.2107 63.8366 67.8602C63.8366 68.5887 64.1479 68.8278 64.8245 68.5526C65.1334 68.4286 65.1808 68.5368 65.2259 68.7827C65.2575 68.9541 65.2913 69.13 65.3657 69.2833C65.4943 69.5494 65.4086 69.669 65.147 69.766C64.5493 69.9847 63.9449 70.0839 63.327 69.8877C62.7022 69.687 62.3414 69.2405 62.2828 68.5909C62.2061 67.7407 62.2534 66.886 62.2602 66.0335C62.2625 65.7561 62.1993 65.6659 61.9129 65.6839C61.4776 65.711 61.4754 65.6907 61.4776 65.2531C61.4776 65.0502 61.4122 64.7976 61.5092 64.6577C61.6152 64.5044 61.8836 64.6059 62.082 64.6036C62.2286 64.6014 62.2602 64.5427 62.258 64.4119C62.2512 64.033 62.2512 63.6564 62.2602 63.2775C62.2625 63.2031 62.1835 63.0655 62.3617 63.0678C62.4339 63.3722 62.3707 63.6812 62.3888 63.9857C62.3978 64.13 62.3797 64.2743 62.3978 64.4187C62.3842 64.0669 62.3955 63.7173 62.3933 63.3655C62.3933 63.264 62.4316 63.1805 62.5331 63.176C62.9255 63.1625 63.3224 63.0836 63.7081 63.2234C63.76 63.6564 63.7171 64.0894 63.7329 64.5224C63.7329 64.1007 63.7374 63.679 63.7284 63.2572C63.7261 63.1918 63.7081 63.1242 63.76 63.0678Z" fill="black"/>
<path d="M95.2212 63.0677C95.343 63.1106 95.2843 63.2143 95.2843 63.2865C95.2911 63.6451 95.3001 64.0059 95.2821 64.3623C95.273 64.5607 95.343 64.6104 95.5302 64.6036C95.8887 64.5901 96.2473 64.6081 96.6059 64.5946C96.766 64.5878 96.8044 64.6419 96.7999 64.7908C96.7886 65.0321 96.7863 65.2757 96.7999 65.5192C96.8089 65.6816 96.7435 65.7087 96.5992 65.7064C96.2315 65.6974 95.8617 65.7109 95.4941 65.6997C95.3249 65.6951 95.2798 65.7515 95.2821 65.9162C95.2911 66.5657 95.2843 67.2152 95.2866 67.867C95.2866 68.5887 95.582 68.83 96.2496 68.5661C96.5946 68.4285 96.6352 68.5706 96.6849 68.8232C96.7142 68.9653 96.7593 69.1029 96.7999 69.2427C96.9126 69.6441 96.9149 69.6532 96.5292 69.793C95.9722 69.9982 95.4016 70.0794 94.8197 69.9035C94.0935 69.6847 93.7079 69.1164 93.7011 68.2571C93.6944 67.4813 93.6921 66.7055 93.7034 65.9297C93.7056 65.7357 93.6492 65.6861 93.4598 65.6884C92.9343 65.6951 92.9343 65.6861 92.9343 65.1674C92.9343 64.6126 92.9343 64.6036 93.4778 64.6036C93.6628 64.6036 93.7056 64.5472 93.7011 64.3713C93.6921 63.9541 93.7056 63.5369 93.7101 63.1219C93.8567 63.1444 93.8139 63.2617 93.8161 63.3497C93.8229 63.6113 93.8184 63.8729 93.8184 64.1345C93.8207 63.8954 93.8184 63.6564 93.8206 63.4196C93.8206 63.3158 93.8409 63.2031 93.9537 63.1918C94.3619 63.1535 94.7746 63.07 95.1761 63.2437C95.2054 63.6519 95.1761 64.0623 95.1896 64.3893C95.2167 64.0014 95.1535 63.5346 95.2212 63.0677Z" fill="black"/>
<path d="M26.0044 64.3511C26.4509 64.3511 26.8975 64.3511 27.344 64.3511C27.4703 64.6037 27.3666 64.8788 27.4117 65.1382C27.423 65.1675 27.4365 65.1946 27.4568 65.2194C27.5741 65.2915 27.5808 65.1675 27.6147 65.1201C27.9936 64.5992 28.5145 64.3488 29.146 64.2947C29.2813 64.2834 29.3174 64.3173 29.3151 64.4435C29.3106 64.8405 29.3106 65.2397 29.3151 65.6366C29.3174 65.7493 29.2858 65.7832 29.164 65.7787C29.0107 65.7719 28.8551 65.7899 28.7017 65.8102C27.971 65.9072 27.4793 66.453 27.4703 67.195C27.4613 68.0182 27.4613 68.8436 27.4726 69.6668C27.4748 69.863 27.432 69.9374 27.22 69.9284C26.8321 69.9103 26.4442 69.9194 26.0563 69.9261C25.9187 69.9284 25.8713 69.89 25.8713 69.748C25.8758 67.9933 25.8736 66.2387 25.8758 64.4841C25.8758 64.4323 25.8533 64.3624 25.9435 64.3533C25.9976 64.4548 25.9706 64.5631 25.9706 64.6668C25.9728 66.2793 25.9751 67.8896 25.9683 69.5021C25.9661 69.7254 26.0179 69.8156 26.257 69.7998C26.5479 69.7795 26.8389 69.784 27.1298 69.7976C27.3215 69.8066 27.3801 69.7389 27.3779 69.5495C27.3688 68.7444 27.3734 67.937 27.3734 67.1318C27.3734 67.0664 27.3643 67.001 27.3779 66.9559C27.3373 66.9943 27.3734 67.0642 27.3734 67.1251C27.3711 67.9212 27.3643 68.7173 27.3756 69.5134C27.3779 69.7231 27.3328 69.8111 27.105 69.7976C26.796 69.7773 26.4848 69.7908 26.1735 69.7931C26.0472 69.7953 25.9751 69.766 25.9751 69.6172C25.9796 67.8783 25.9728 66.1418 25.9796 64.4029C25.9818 64.3849 25.9954 64.3669 26.0044 64.3511Z" fill="black"/>
<path d="M66.5566 64.3511C66.9828 64.3466 67.409 64.3511 67.8353 64.3375C68.0022 64.333 68.027 64.4029 68.0202 64.5428C68.0112 64.7728 68.018 65.0051 68.018 65.2464C68.1398 65.2419 68.1488 65.1336 68.1939 65.075C68.5795 64.5721 69.1005 64.3398 69.7185 64.2902C69.8312 64.2811 69.8538 64.3218 69.8538 64.4165C69.8538 64.8247 69.8515 65.2306 69.856 65.6388C69.8583 65.7561 69.8154 65.7787 69.7004 65.7764C69.4185 65.7674 69.1411 65.8012 68.8772 65.9117C68.3157 66.1463 68.0338 66.5793 68.0202 67.1747C68.0022 68.0362 68.009 68.9 68.0044 69.7615C67.9751 69.7885 67.9435 69.8088 67.9052 69.8224C67.5286 69.8675 67.1519 69.8382 66.7753 69.8404C66.5881 69.8427 66.4934 69.7592 66.4934 69.5585C66.4957 67.8851 66.4934 66.2117 66.4957 64.5383C66.5002 64.4706 66.5069 64.4052 66.5566 64.3511Z" fill="black"/>
<path d="M34.2792 62.6663C34.3942 62.6731 34.3536 62.7633 34.3536 62.8174C34.3558 65.1426 34.3558 67.4678 34.3536 69.7953C34.3536 69.8223 34.3401 69.8516 34.3333 69.8787C33.8507 69.9418 33.368 69.89 32.8854 69.908C32.7704 69.9125 32.7298 69.8584 32.7366 69.7501C32.7411 69.6915 32.7366 69.6329 32.7366 69.5765C32.7366 67.3866 32.7366 65.1945 32.7366 63.0046C32.7366 62.6889 32.7366 62.6889 33.0455 62.6889C33.3748 62.6889 33.7041 62.6956 34.0333 62.6866C34.1957 62.6821 34.2701 62.734 34.2476 62.9009C34.2408 62.9573 34.2476 63.0181 34.2476 63.0745C34.2476 65.1967 34.2476 67.3212 34.2476 69.4434C34.2476 69.5494 34.2611 69.6577 34.2341 69.7614C33.8213 69.8358 33.4041 69.7772 32.9891 69.7953C32.8899 69.7998 32.8493 69.7479 32.8516 69.6532C32.8516 69.6036 32.8516 69.5562 32.8516 69.5066C32.8516 67.4001 32.8516 65.2937 32.8516 63.185C32.8516 63.1241 32.8313 63.061 32.8493 63.0362C32.8493 63.5729 32.8493 64.1413 32.8493 64.7119C32.8493 66.2951 32.8493 67.876 32.8493 69.4592C32.8493 69.7953 32.8493 69.7975 33.1989 69.7953C33.5282 69.7953 33.8597 69.7998 34.189 69.793C34.304 69.7141 34.2453 69.5968 34.2453 69.4998C34.2498 67.328 34.2476 65.1561 34.2498 62.9843C34.2521 62.8738 34.2228 62.7656 34.2792 62.6663Z" fill="black"/>
<path d="M70.8689 64.351C71.3155 64.351 71.762 64.351 72.2086 64.351C72.2875 64.4412 72.2672 64.5517 72.2672 64.6577C72.2694 66.2545 72.2694 67.8512 72.2672 69.4479C72.2672 69.8088 72.2356 69.8516 71.8658 69.8404C71.532 69.8313 71.1892 69.9103 70.8622 69.7795C70.7877 69.6757 70.8125 69.5562 70.8125 69.4434C70.8103 67.858 70.8103 66.2725 70.8125 64.6848C70.8103 64.572 70.7855 64.4502 70.8689 64.351Z" fill="black"/>
<path d="M56.1009 44.7978C56.9309 43.1852 58.4848 42.4636 60.174 42.9033C61.6918 43.298 62.754 44.7955 62.6751 46.4261C62.6051 47.8807 61.5001 49.2204 60.104 49.5496C58.5682 49.9105 57.0617 49.2948 56.3355 48.007C56.252 47.0418 56.3174 46.0788 56.2904 45.2601C56.2904 45.7991 56.2994 46.487 56.2836 47.1726C56.2791 47.3259 56.4279 47.5627 56.1348 47.6349L56.119 47.6439C56.0265 46.6945 56.0581 45.7472 56.1009 44.7978Z" fill="black"/>
<path d="M72.3912 62.7633C72.389 63.2888 72.0327 63.6542 71.523 63.6496C71.0178 63.6451 70.675 63.2753 70.6795 62.7408C70.684 62.2243 71.0313 61.868 71.5297 61.8657C72.0349 61.8657 72.3935 62.2378 72.3912 62.7633Z" fill="black"/>
<path d="M34.218 69.7592C34.218 67.5084 34.2158 65.2576 34.2248 63.0069C34.2248 62.7813 34.1661 62.6956 33.9316 62.7114C33.6429 62.7317 33.3497 62.7295 33.0588 62.7114C32.831 62.6979 32.7611 62.7678 32.7634 63.0024C32.7746 64.3893 32.7679 65.7763 32.7679 67.1656C32.7679 67.9797 32.7724 68.7962 32.7634 69.6103C32.7611 69.8088 32.8107 69.8832 33.0205 69.8787C33.4557 69.8652 33.8932 69.8787 34.3308 69.8809C33.9564 69.9892 33.573 69.9148 33.1941 69.9261C32.7092 69.9396 32.7092 69.9306 32.7092 69.4434C32.7092 67.3325 32.7092 65.2215 32.7092 63.1106C32.7092 62.6618 32.7092 62.6618 33.1716 62.6618C33.5392 62.6641 33.9068 62.6663 34.2744 62.6708C34.2744 64.9464 34.2744 67.2197 34.2699 69.4953C34.2699 69.6058 34.3172 69.7298 34.2135 69.8246C34.1932 69.811 34.1864 69.7975 34.1932 69.784C34.2045 69.7659 34.2112 69.7592 34.218 69.7592Z" fill="#191919"/>
<path d="M31.0925 47.5063C31.0925 44.7346 31.0925 41.9628 31.0925 39.1911C31.1309 39.1911 31.167 39.1911 31.2053 39.1911C31.2053 39.8632 31.2053 40.5352 31.2053 41.2073C31.2053 43.0499 31.2256 44.8902 31.194 46.7327C31.185 47.2672 31.3203 47.4296 31.8729 47.4274C39.9152 47.4093 47.9597 47.4138 56.0021 47.4138C56.0359 47.4409 56.0472 47.468 56.0382 47.4973C56.0291 47.5266 56.0179 47.5401 56.0066 47.5401C47.7951 47.5424 39.5814 47.5447 31.3699 47.5469C31.2752 47.5447 31.185 47.5198 31.0925 47.5063Z" fill="#737272"/>
<path d="M72.267 64.3488C72.4023 64.4006 72.3302 64.5157 72.3302 64.5968C72.3347 66.2838 72.3279 67.973 72.3392 69.6599C72.3414 69.8877 72.2715 69.9351 72.0618 69.9261C71.6942 69.908 71.3243 69.9148 70.9567 69.9238C70.7988 69.9283 70.7379 69.8922 70.7379 69.7186C70.7447 67.982 70.7402 66.2454 70.7447 64.5089C70.7447 64.4525 70.6996 64.3645 70.8101 64.3488C70.8642 64.4502 70.8372 64.5585 70.8372 64.6622C70.8417 66.3492 70.8349 68.0361 70.8417 69.7231C70.8823 69.8246 70.9725 69.7885 71.0424 69.7885C71.3514 69.793 71.6626 69.775 71.9716 69.7953C72.1971 69.8088 72.2445 69.7276 72.2445 69.5156C72.2354 68.1872 72.2354 66.8611 72.2422 65.5328C72.2422 65.1404 72.2039 64.7434 72.267 64.3488Z" fill="#030303"/>
<path d="M56.0062 47.538C56.0039 47.4951 56.0039 47.4545 56.0017 47.4117C56.0039 46.8298 55.9769 46.2479 56.0175 45.6683C56.0535 45.1834 55.9115 45.0278 55.4018 45.0323C51.8384 45.0549 48.2773 45.0436 44.714 45.0436C41.2815 45.0436 37.8512 45.0459 34.4187 45.0391C34.2112 45.0391 33.9608 45.1474 33.803 44.8993C40.9996 44.897 48.1962 44.8948 55.3927 44.8925C55.6318 44.8925 55.8821 44.9466 56.1032 44.7978C56.1099 45.745 56.1144 46.6945 56.1212 47.6417C56.0806 47.6079 56.0423 47.5718 56.0062 47.538Z" fill="#605E5F"/>
<path d="M0.136605 69.8201C0.0328618 69.7253 0.0824779 69.6013 0.0802226 69.4908C0.0757121 67.2152 0.0757128 64.9396 0.0757128 62.6663C1.23041 62.6641 2.38511 62.6596 3.53982 62.6618C3.61424 62.6618 3.68867 62.6911 3.76534 62.7047C2.66928 62.7092 1.57322 62.7227 0.479406 62.7092C0.192986 62.7047 0.127584 62.7926 0.129839 63.0678C0.141115 65.2982 0.13886 67.5287 0.13886 69.7592C0.156903 69.7749 0.163667 69.7885 0.156901 69.802C0.150135 69.8133 0.14337 69.8201 0.136605 69.8201Z" fill="#222222"/>
<path d="M26.0042 64.351C26.0042 66.0492 26.0087 67.7497 25.9975 69.4479C25.9952 69.7118 26.0764 69.7885 26.3267 69.7682C26.5771 69.7479 26.8319 69.7524 27.0845 69.7682C27.292 69.7817 27.3506 69.7005 27.3461 69.5021C27.3371 68.6969 27.3416 67.8895 27.3416 67.0844C27.3416 66.9604 27.3168 66.8296 27.4002 66.7506C27.4002 67.664 27.3935 68.6 27.4048 69.5336C27.407 69.7637 27.3416 69.8426 27.1093 69.8268C26.8297 69.8088 26.5455 69.8065 26.2658 69.8268C26.011 69.8471 25.9343 69.7682 25.9366 69.5066C25.9501 68.0316 25.9433 66.5544 25.9433 65.0795C25.9433 64.8359 25.9433 64.5946 25.9433 64.351C25.9659 64.351 25.9862 64.351 26.0042 64.351Z" fill="#121212"/>
<path d="M33.7988 39.0716C33.8011 39.0333 33.8056 38.9949 33.8079 38.9566C40.0798 38.9543 46.3494 38.9521 52.6214 38.9521C52.7522 38.9521 52.883 38.9656 53.0138 38.9724C52.6326 39.1077 52.2357 39.0694 51.8478 39.0694C45.8285 39.0716 39.8137 39.0716 33.7988 39.0716Z" fill="#0C0C0C"/>
<path d="M67.9528 69.7614C67.9708 69.7614 67.9888 69.7614 68.0069 69.7614C68.0385 69.8719 68.0046 69.9238 67.8828 69.9238C67.4453 69.9216 67.01 69.917 66.5725 69.9261C66.3966 69.9306 66.4214 69.8201 66.4214 69.7163C66.4214 69.2495 66.4214 68.7849 66.4214 68.3181C66.4214 67.0867 66.4192 65.853 66.4259 64.6216C66.4259 64.5314 66.356 64.4074 66.4958 64.351C66.55 64.4525 66.5229 64.5608 66.5229 64.6645C66.5252 66.2748 66.5297 67.8828 66.5184 69.493C66.5161 69.7321 66.5793 69.8178 66.8229 69.7975C67.1995 69.7637 67.5784 69.8268 67.9528 69.7614Z" fill="#090909"/>
<path d="M41.3269 69.7615C41.3269 68.4038 41.3269 67.0438 41.3269 65.6185C41.3607 65.5644 41.2818 65.9636 41.3946 65.7177C41.4825 65.9117 41.487 66.1192 41.4938 66.3244C41.4104 66.4146 41.4464 66.5274 41.4464 66.6289C41.4442 67.6731 41.4442 68.715 41.4442 69.7592C41.4058 69.7953 41.3652 69.7953 41.3269 69.7615Z" fill="#0A0A0A"/>
<path d="M89.2762 62.7701C89.0417 62.6528 88.7891 62.7318 88.5478 62.7182C88.2907 62.7047 88.0313 62.7137 87.772 62.7137C87.8599 62.5987 87.984 62.6596 88.0877 62.6596C88.5049 62.6551 88.9222 62.6619 89.3394 62.6664C89.3394 64.4999 89.3371 66.3334 89.3371 68.167C89.3371 68.2437 89.3371 68.3226 89.3349 68.3993C89.3349 68.406 89.3236 68.4128 89.3191 68.4173C89.3056 68.3993 89.292 68.3812 89.2762 68.3609C89.2379 68.2978 89.2514 68.2301 89.2514 68.1625C89.2514 66.4304 89.2514 64.6984 89.2514 62.9663C89.2514 62.9009 89.2357 62.831 89.2762 62.7701Z" fill="#212121"/>
<path d="M95.1625 63.237C94.8129 63.237 94.4634 63.2437 94.116 63.2325C93.9401 63.2279 93.8747 63.2866 93.8792 63.467C93.8905 63.8233 93.8815 64.1797 93.8815 64.5743C93.7191 64.4774 93.7732 64.3624 93.7665 64.2721C93.7349 63.8887 93.8251 63.5031 93.7146 63.1242C93.7236 63.0362 93.7958 63.0588 93.8454 63.0588C94.2852 63.0611 94.725 63.0656 95.1647 63.0678C95.2031 63.1242 95.2031 63.1806 95.1625 63.237Z" fill="#080808"/>
<path d="M72.267 64.3488C72.267 66.0244 72.267 67.7001 72.2647 69.378C72.2647 69.8832 72.3233 69.8268 71.8091 69.8155C71.4754 69.8088 71.1371 69.8855 70.8101 69.7637C70.8281 69.7344 70.8484 69.7344 70.8687 69.7614C71.2183 69.7614 71.5678 69.7502 71.9174 69.7682C72.1474 69.7795 72.2151 69.7073 72.2128 69.475C72.2038 67.7678 72.2083 66.0605 72.2083 64.3533C72.2264 64.351 72.2467 64.3488 72.267 64.3488Z" fill="#191919"/>
<path d="M67.9529 69.7614C67.5086 69.8855 67.0553 69.7998 66.6042 69.8088C66.4644 69.811 66.5005 69.669 66.4982 69.5787C66.4959 68.9585 66.4959 68.3383 66.4959 67.7181C66.4959 66.595 66.4959 65.4719 66.4959 64.3465C66.5162 64.3465 66.5365 64.3465 66.5546 64.3488C66.5546 66.047 66.5591 67.7452 66.5478 69.4434C66.5456 69.7028 66.6177 69.7817 66.8748 69.7682C67.2334 69.7456 67.5943 69.7614 67.9529 69.7614Z" fill="#191919"/>
<path d="M36.0856 64.351C36.0856 66.0492 36.0901 67.7475 36.0788 69.4457C36.0766 69.705 36.1488 69.7862 36.4059 69.7682C36.7239 69.7456 37.0464 69.7614 37.3666 69.7614C37.3869 69.7344 37.4072 69.7344 37.4252 69.7637C36.999 69.8922 36.566 69.7998 36.1352 69.811C35.9954 69.8156 36.0292 69.6735 36.0292 69.5833C36.027 69.0217 36.027 68.4601 36.027 67.8963C36.027 66.7146 36.027 65.5328 36.027 64.351C36.045 64.351 36.0653 64.351 36.0856 64.351Z" fill="#181818"/>
<path d="M55.1334 69.7592C55.1334 67.9572 55.1334 66.153 55.1356 64.351C55.1559 64.351 55.1762 64.351 55.1965 64.351C55.1965 66.065 55.1965 67.779 55.1943 69.4908C55.1943 69.6013 55.2416 69.7253 55.1379 69.8201C55.1176 69.8065 55.1108 69.7953 55.1153 69.7795C55.1221 69.7659 55.1266 69.7592 55.1334 69.7592Z" fill="#1C1C1C"/>
<path d="M70.8685 69.7614C70.8482 69.7614 70.8302 69.7637 70.8099 69.7637C70.8099 67.9595 70.8099 66.1552 70.8076 64.351C70.8279 64.351 70.846 64.351 70.8663 64.351C70.8685 66.153 70.8685 67.9572 70.8685 69.7614Z" fill="#0B0B0B"/>
<path d="M78.9628 67.5986C78.8726 67.5084 78.7599 67.549 78.6584 67.549C77.5533 67.5468 76.446 67.549 75.3409 67.5445C75.2484 67.5445 75.1514 67.5738 75.0161 67.4881C75.5281 67.4881 75.9926 67.4881 76.455 67.4881C77.1834 67.4881 77.9096 67.4746 78.6381 67.4949C78.9177 67.5039 78.9967 67.4047 78.9674 67.1476C78.9538 67.0235 78.9719 66.8972 78.9764 66.7709C79.0328 67.0506 79.0734 67.3257 78.9628 67.5986Z" fill="#272727"/>
<path d="M49.951 64.351C49.951 65.5486 49.951 66.7461 49.951 67.9437C49.9307 67.9437 49.9104 67.9437 49.8901 67.9437C49.8901 66.7461 49.8901 65.5486 49.8901 64.351C49.9127 64.351 49.933 64.351 49.951 64.351Z" fill="#1C1C1C"/>
<path d="M53.8548 64.351C53.8548 65.3388 53.8548 66.3266 53.8548 67.3145C53.8345 67.3145 53.8142 67.3145 53.7961 67.3145C53.7961 66.3266 53.7961 65.3388 53.7961 64.351C53.8164 64.351 53.8345 64.351 53.8548 64.351Z" fill="#0F0F0F"/>
<path d="M33.7153 44.8158C33.5958 44.7595 33.5755 44.6535 33.5755 44.5362C33.5755 42.7861 33.5732 41.036 33.5755 39.2859C33.5755 39.2543 33.589 39.2092 33.6115 39.1957C33.6318 39.1822 33.6747 39.2024 33.7063 39.207C33.7085 41.0766 33.7108 42.9462 33.7153 44.8158Z" fill="#615F60"/>
<path d="M63.7015 63.2369C63.3835 63.2369 63.0632 63.2504 62.7452 63.2301C62.4971 63.2143 62.3956 63.2797 62.4159 63.5481C62.4407 63.8639 62.4205 64.1819 62.3618 64.5021C62.3618 64.024 62.3618 63.5459 62.3618 63.0677C62.3821 63.0677 62.4024 63.0677 62.4205 63.0677C62.6527 63.1737 62.8963 63.0971 63.1354 63.1196C63.3181 63.1354 63.503 63.0926 63.6834 63.1489C63.715 63.1738 63.7217 63.2031 63.7015 63.2369Z" fill="#111111"/>
<path d="M24.1645 69.3036C24.1194 69.2878 24.0991 69.245 24.1374 69.2202C24.3923 69.0397 24.2547 68.9134 24.1036 68.7511C24.0021 68.6405 23.7766 68.5864 23.8533 68.3564C23.9773 68.4759 24.1058 68.5909 24.2276 68.7127C24.5434 69.033 24.5411 69.0352 24.1645 69.3036Z" fill="#191919"/>
<path d="M63.7014 63.1783C63.3496 63.1783 62.9978 63.1805 62.6437 63.1783C62.5535 63.1783 62.443 63.2098 62.4204 63.0677C62.8467 63.0677 63.2752 63.0677 63.7014 63.0677C63.7352 63.1038 63.733 63.1422 63.7014 63.1783Z" fill="black"/>
<path d="M18.9973 69.7073C18.9432 69.7794 18.8823 69.8245 18.7808 69.8223C18.2982 69.8155 17.8178 69.82 17.3352 69.7614C17.766 69.7614 18.1967 69.7546 18.6275 69.7659C18.7854 69.7704 18.8868 69.7434 18.9049 69.572C18.968 69.5945 18.9793 69.6531 18.9973 69.7073Z" fill="#171717"/>
<path d="M18.262 65.172C18.2147 65.0953 18.2304 65.0367 18.2959 64.9713C18.4447 64.8224 18.5868 64.6668 18.7289 64.5112C18.7852 64.4503 18.8303 64.4909 18.8822 64.5157C18.6905 64.748 18.4875 64.969 18.262 65.172Z" fill="#121212"/>
<path d="M56.135 47.6326C56.356 47.071 56.1914 46.4869 56.232 45.9163C56.2545 45.6006 56.2365 45.2826 56.3493 44.9623C56.3493 45.366 56.3515 45.772 56.3493 46.1757C56.347 46.7846 56.3402 47.3958 56.3357 48.0047C56.2049 47.9145 56.1553 47.7814 56.135 47.6326Z" fill="#0D0D0D"/>
<path d="M63.7014 63.1783C63.7014 63.1422 63.7014 63.1038 63.7014 63.0677C63.7217 63.0677 63.742 63.0677 63.76 63.0677C63.76 63.5481 63.76 64.0285 63.76 64.5089C63.7398 64.5089 63.7217 64.5089 63.7014 64.5089C63.7014 64.0849 63.7014 63.6609 63.7014 63.2369C63.7014 63.2166 63.7014 63.1986 63.7014 63.1783Z" fill="#141414"/>
<path d="M95.1624 63.2369C95.1624 63.1805 95.1623 63.1241 95.1646 63.0677C95.1849 63.0677 95.2052 63.0677 95.2232 63.0677C95.2232 63.5481 95.2232 64.0285 95.2232 64.5089C95.2029 64.5089 95.1827 64.5089 95.1624 64.5089C95.1624 64.0849 95.1624 63.6609 95.1624 63.2369Z" fill="#151515"/>
<path d="M27.405 65.217C27.2696 64.9351 27.3802 64.6374 27.3441 64.3488C27.3644 64.3488 27.3847 64.3488 27.4027 64.3488C27.4501 64.6397 27.4478 64.9284 27.405 65.217Z" fill="#141414"/>
<path d="M27.4048 65.217C27.4048 64.9284 27.4026 64.6374 27.4026 64.3488C27.5447 64.6307 27.4454 64.9261 27.4567 65.217C27.4409 65.217 27.4229 65.217 27.4048 65.217Z" fill="black"/>
<path d="M56.8996 68.2391C56.8094 68.2617 56.8139 68.4579 56.6628 68.3677C56.717 68.2797 56.6899 68.0407 56.8996 68.2391Z" fill="#1B1B1B"/>
<path d="M56.9989 64.863C57.053 65.0231 56.9989 65.084 56.8342 65.0457C56.8681 64.9667 56.9154 64.8991 56.9989 64.863Z" fill="#262626"/>
<path d="M56.6468 68.4128C56.6987 68.4918 56.719 68.5752 56.6491 68.6474C56.5905 68.7083 56.5882 68.6045 56.5476 68.6C56.5679 68.5324 56.5837 68.4602 56.6468 68.4128Z" fill="#1B1B1B"/>
<path d="M57.0756 68.3564C57.0259 68.3745 56.9741 68.4264 56.9267 68.3632C56.9132 68.3429 56.9335 68.2955 56.938 68.2617C56.9831 68.2933 57.0282 68.3249 57.0756 68.3564Z" fill="#1B1B1B"/>
<path d="M66.5477 51.223C67.5378 50.4247 68.388 49.7007 69.1232 48.8505C75.3974 41.6111 72.9752 30.3572 64.2654 26.3541C63.882 26.1782 63.7196 25.9887 63.6745 25.5445C63.1422 20.4205 58.767 15.955 53.6453 15.2514C51.9606 15.0191 50.2691 15.1454 48.5799 15.1363C45.1226 15.1183 41.6652 15.1431 38.2101 15.1476C38.156 15.1476 38.1041 15.1363 38.0229 15.1251C38.0365 14.886 38.2552 14.8409 38.3838 14.7439C43.5664 10.8603 48.7513 6.98352 53.9407 3.11121C54.8315 2.4459 55.6164 2.45943 56.5117 3.13602C62.9393 7.98712 69.3623 12.8405 75.7943 17.6848C76.4551 18.1832 76.728 18.8125 76.7235 19.6244C76.7122 22.5743 76.719 25.5242 76.719 28.4741C76.719 35.294 76.719 42.114 76.719 48.9339C76.719 50.5848 76.0853 51.223 74.4457 51.223C71.8679 51.223 69.2946 51.223 66.5477 51.223Z" fill="#F2A828"/>
<path d="M25.5579 52.5447C25.5489 51.4982 26.3879 50.6254 27.423 50.6051C28.465 50.5848 29.3806 51.4869 29.3739 52.5311C29.3671 53.5708 28.5123 54.4233 27.4659 54.4323C26.4262 54.4391 25.567 53.5889 25.5579 52.5447Z" fill="#F2A828"/>
<path d="M30.7836 53.6362C45.5759 53.6362 60.3683 53.6362 75.1606 53.6362C75.1606 53.6543 75.1606 53.6746 75.1606 53.6926C60.3638 53.6926 45.5669 53.6926 30.77 53.6926C30.7768 53.6746 30.779 53.6543 30.7836 53.6362Z" fill="#141414"/>
<path d="M76.9668 19.0381C76.9668 29.2725 76.9668 39.5092 76.9668 49.7437C76.9487 49.7437 76.9284 49.7437 76.9104 49.7437C76.9104 39.5002 76.9104 29.259 76.9104 19.0155C76.9284 19.0223 76.9487 19.0313 76.9668 19.0381Z" fill="#110800"/>
<path d="M30.7722 51.381C40.2647 51.381 49.7571 51.381 59.2496 51.381C59.2496 51.399 59.2496 51.4171 59.2496 51.4351C49.7594 51.4351 40.2692 51.4351 30.7812 51.4351C30.779 51.4171 30.7745 51.399 30.7722 51.381Z" fill="#191919"/>
<path d="M52.2899 36.7013C46.2029 36.7013 40.1136 36.7036 34.0266 36.7036C33.9883 36.7577 33.95 36.7554 33.9116 36.7013C34.0763 36.5141 34.2973 36.5931 34.4957 36.5908C40.4271 36.5863 46.3585 36.5886 52.2899 36.5886C52.3282 36.6134 52.3395 36.6382 52.3282 36.663C52.3147 36.6878 52.3012 36.7013 52.2899 36.7013Z" fill="#0F0F0F"/>
<path d="M40.6752 17.5359C40.8421 17.3532 41.0631 17.4277 41.2593 17.4277C44.8046 17.4231 48.3476 17.4186 51.8929 17.4299C52.3169 17.4322 52.7409 17.5111 53.1649 17.5991C48.9994 17.3397 44.8384 17.6825 40.6729 17.6464C40.6346 17.6216 40.6233 17.5968 40.6368 17.572C40.6504 17.5472 40.6639 17.5359 40.6752 17.5359Z" fill="#0F0F0F"/>
<path d="M38.1088 15.3033C43.0162 15.3033 47.9215 15.3033 52.829 15.3033C52.829 15.3213 52.829 15.3416 52.829 15.3597C47.9215 15.3597 43.0117 15.3597 38.1042 15.3597C38.1065 15.3394 38.1065 15.3213 38.1088 15.3033Z" fill="#201301"/>
<path d="M75.2552 51.4577C72.4609 51.4577 69.6666 51.4577 66.8723 51.4577C66.8723 51.4396 66.8723 51.4193 66.8723 51.4013C69.6734 51.4013 72.4767 51.4013 75.2777 51.4013C75.2687 51.4193 75.2619 51.4374 75.2552 51.4577Z" fill="#110700"/>
<path d="M40.6753 17.5359C40.6753 17.572 40.6753 17.6104 40.673 17.6465C38.3861 17.6465 36.1015 17.6465 33.8147 17.6465C33.8147 17.6104 33.8147 17.572 33.8147 17.5359C36.1015 17.5359 38.3884 17.5359 40.6753 17.5359Z" fill="#222222"/>
<path d="M72.4453 38.3026C72.4453 39.0829 72.4453 39.8609 72.4453 40.6413C72.4273 40.6413 72.407 40.6413 72.3889 40.6413C72.3889 39.8632 72.3889 39.0851 72.3889 38.3071C72.4092 38.3071 72.4273 38.3048 72.4453 38.3026Z" fill="#1C1001"/>
<path d="M33.9116 36.7013C33.95 36.7013 33.9883 36.7013 34.0266 36.7035C34.0266 37.3711 34.0266 38.0387 34.0266 38.7085C33.9883 38.7085 33.95 38.7107 33.9116 38.7107C33.9116 38.0409 33.9116 37.3711 33.9116 36.7013Z" fill="#0C0C0C"/>
<path d="M24.2361 53.0341C24.2361 52.6733 24.2361 52.3147 24.2361 51.9538C24.2541 51.9538 24.2699 51.9516 24.288 51.9516C24.288 52.3079 24.288 52.6643 24.288 53.0206C24.2699 53.0251 24.2541 53.0296 24.2361 53.0341Z" fill="#141414"/>
<path d="M52.8332 38.8213C52.5107 38.8213 52.1905 38.8213 51.868 38.8213C51.868 38.8032 51.8657 38.7852 51.8657 38.7694C52.186 38.7694 52.5062 38.7694 52.8265 38.7694C52.8287 38.7875 52.831 38.8055 52.8332 38.8213Z" fill="#0C0C0C"/>
<path d="M55.6658 0.253779C55.3343 0.253779 55.0027 0.253779 54.6689 0.253779C54.6689 0.237992 54.6689 0.21995 54.6689 0.204163C55.0005 0.204163 55.332 0.204163 55.6658 0.204163C55.6635 0.21995 55.6658 0.237992 55.6658 0.253779Z" fill="#242424"/>
<path d="M70.2168 38.8461C70.4017 39.2588 70.3995 39.6716 70.2168 40.0865C70.2168 39.6716 70.2168 39.2566 70.2168 38.8461Z" fill="#121212"/>
<path d="M70.2193 38.8438C70.0118 38.6025 70.1336 38.3319 70.2193 38.0657C70.2171 38.3251 70.2171 38.5845 70.2193 38.8438C70.2171 38.8461 70.2193 38.8438 70.2193 38.8438Z" fill="#121212"/>
<path d="M70.2037 40.0842C70.2037 40.303 70.2037 40.5218 70.2037 40.7383C70.118 40.5172 70.0369 40.294 70.2037 40.0842Z" fill="#121212"/>
<path d="M60.1808 51.2457C60.0162 51.4419 59.8155 51.3291 59.6238 51.2479C59.811 51.2479 59.9959 51.2479 60.1808 51.2457Z" fill="#131313"/>
<path d="M27.0509 55.7044C26.9291 55.7765 26.8141 55.7765 26.6653 55.7044C26.8096 55.6209 26.9246 55.6142 27.0509 55.7044Z" fill="#111111"/>
<path d="M60.1831 51.2478C60.3094 51.0787 60.4695 51.1486 60.6951 51.1441C60.4898 51.2997 60.3297 51.223 60.1831 51.2478C60.1809 51.2455 60.1831 51.2478 60.1831 51.2478Z" fill="#131313"/>
<path d="M53.6272 38.6859C53.7422 38.5799 53.855 38.6137 53.9835 38.6498C53.8708 38.7941 53.7557 38.731 53.6272 38.6859Z" fill="#131313"/>
<path d="M52.2896 36.7014C52.2896 36.6653 52.2896 36.627 52.2896 36.5909C52.4361 36.5909 52.5805 36.5909 52.7271 36.5909C52.7293 36.6202 52.7316 36.6495 52.7338 36.6811C52.585 36.6879 52.4361 36.6946 52.2896 36.7014Z" fill="#0C0C0C"/>
<path d="M61.2523 28.6049C61.1734 28.4854 61.1801 28.3703 61.2478 28.2147C61.3335 28.3636 61.3357 28.4786 61.2523 28.6049Z" fill="#1B1B1B"/>
<path d="M28.1448 55.754C28.0433 55.7449 27.8583 55.7449 27.8538 55.7246C27.8358 55.5848 27.9598 55.6615 28.023 55.6502C28.0681 55.6412 28.1199 55.6705 28.1696 55.6818C28.1605 55.7043 28.1538 55.7292 28.1448 55.754Z" fill="#111111"/>
<path d="M28.8937 36.3834C28.3299 36.3834 27.7661 36.3721 27.2023 36.3879C26.9136 36.3969 26.8031 36.2999 26.8099 36.0022C26.8256 35.2692 26.8234 34.5363 26.8099 33.8033C26.8054 33.5282 26.8685 33.3929 27.182 33.3951C28.3457 33.4086 29.5117 33.4041 30.6777 33.3974C30.9167 33.3951 31.0137 33.4831 31.0114 33.7266C31.0024 34.4957 31.0002 35.267 31.0137 36.0383C31.0182 36.3179 30.8964 36.3901 30.6416 36.3856C30.0575 36.3766 29.4756 36.3834 28.8937 36.3834Z" fill="#FDFDFD"/>
<path d="M31.0789 25.0799C34.5723 25.0845 38.0657 25.0912 41.5591 25.0912C47.7386 25.0935 53.9181 25.0912 60.0998 25.0912C60.3027 25.0912 60.508 25.0912 60.7109 25.0912C60.7132 25.1273 60.7155 25.1656 60.72 25.2017C60.5215 25.2017 60.3208 25.2017 60.1223 25.2017C50.7313 25.2017 41.3381 25.2017 31.9471 25.2017C31.2074 25.2017 31.2074 25.2017 31.2074 25.9212C31.2074 27.439 31.2074 28.9568 31.0856 30.4746C31.0856 28.6749 31.0856 26.8729 31.0856 25.0732C31.0811 25.0754 31.0789 25.0799 31.0789 25.0799Z" fill="#6D6B6C"/>
<path d="M33.7038 28.0433C33.7106 30.5331 33.7151 33.0252 33.7219 35.5151C33.7219 35.7947 33.7309 36.0766 33.7354 36.3563C33.5527 36.2864 33.573 36.1262 33.573 35.9774C33.573 33.3771 33.5708 30.779 33.573 28.1786C33.573 28.1268 33.5888 28.0749 33.6091 28.0275C33.6114 28.023 33.67 28.0388 33.7038 28.0433Z" fill="#615F60"/>
<path d="M24.2051 39.0784C24.2863 39.0401 24.3675 38.9657 24.4486 38.9657C26.5821 38.9589 28.7156 38.9612 30.8491 39.0762C28.6344 39.0762 26.4198 39.0762 24.2051 39.0784C24.2051 39.0762 24.2051 39.0784 24.2051 39.0784Z" fill="#626061"/>
<path d="M24.2051 30.7203C26.4153 30.7203 28.6232 30.7203 30.8717 30.7203C30.8266 30.7902 30.8153 30.8263 30.8018 30.8263C28.7021 30.8308 26.6047 30.8353 24.505 30.8376C24.39 30.8376 24.2818 30.8218 24.2051 30.7203Z" fill="#676566"/>
<path d="M28.8888 33.2936C30.4171 33.2936 31.656 33.2774 31.656 33.2575C31.656 33.2376 30.4171 33.2214 28.8888 33.2214C27.3605 33.2214 26.1216 33.2376 26.1216 33.2575C26.1216 33.2774 27.3605 33.2936 28.8888 33.2936Z" fill="#6D6B6C"/>
<path d="M31.1265 36.2165C31.1265 35.3301 31.1265 34.4416 31.1265 33.5552C31.1445 33.5552 31.1625 33.5552 31.1806 33.5552C31.1806 34.4461 31.1806 35.3392 31.1806 36.23C31.1625 36.2277 31.1445 36.2232 31.1265 36.2165Z" fill="#6A6869"/>
<path d="M2.65355 68.5864C2.38291 68.5864 2.11003 68.5796 1.83939 68.5887C1.68603 68.5954 1.64093 68.5413 1.64318 68.3902C1.6522 67.9459 1.64995 67.4993 1.64318 67.0551C1.64093 66.913 1.67025 66.8476 1.83263 66.8521C2.37389 66.8611 2.91742 66.8566 3.45868 66.8588C3.6143 66.8588 3.76314 66.9017 3.90974 66.9536C4.30667 67.0979 4.50964 67.355 4.50738 67.7136C4.50513 68.079 4.2999 68.3428 3.91425 68.4826C3.73157 68.5503 3.54438 68.5909 3.34817 68.5864C3.11813 68.5819 2.88584 68.5864 2.65355 68.5864Z" fill="#FEFEFE"/>
<path d="M2.63545 64.006C2.89706 64.006 3.16093 63.9924 3.42028 64.0082C3.92547 64.0398 4.25474 64.3397 4.26827 64.7592C4.28406 65.2012 3.97508 65.5373 3.45411 65.5689C2.90383 65.6027 2.34903 65.5846 1.79649 65.5914C1.68372 65.5937 1.64313 65.5531 1.64313 65.4403C1.64764 65.0141 1.64989 64.5856 1.64313 64.1593C1.64087 64.024 1.70176 63.9969 1.81904 64.0014C2.08967 64.0082 2.36256 64.0037 2.63319 64.0037C2.63545 64.0037 2.63545 64.0037 2.63545 64.006Z" fill="#FEFEFE"/>
<path d="M0.136475 69.8201C0.13873 69.7998 0.138729 69.7795 0.140984 69.7592C1.43777 69.7592 2.73455 69.7592 4.03134 69.7592C4.03134 69.7795 4.03134 69.7998 4.03134 69.8201C2.7323 69.8201 1.43326 69.8201 0.136475 69.8201Z" fill="#151515"/>
<path d="M2.67134 68.7037C3.41992 68.7037 4.02676 68.6946 4.02676 68.6834C4.02676 68.6722 3.41992 68.6631 2.67134 68.6631C1.92276 68.6631 1.31592 68.6722 1.31592 68.6834C1.31592 68.6946 1.92276 68.7037 2.67134 68.7037Z" fill="#1A1A1A"/>
<path d="M2.66908 66.78C3.41642 66.78 4.02225 66.7719 4.02225 66.7619C4.02225 66.752 3.41642 66.7439 2.66908 66.7439C1.92175 66.7439 1.31592 66.752 1.31592 66.7619C1.31592 66.7719 1.92175 66.78 2.66908 66.78Z" fill="#202020"/>
<path d="M3.62305 63.9225C2.98706 63.9225 2.35108 63.9225 1.71509 63.9225C1.71509 63.9135 1.71509 63.9022 1.71509 63.8932C2.34882 63.8932 2.9803 63.8932 3.61403 63.8932C3.61629 63.9045 3.6208 63.9135 3.62305 63.9225Z" fill="#0D0D0D"/>
<path d="M2.55633 65.7358C3.21025 65.7358 3.74036 65.7268 3.74036 65.7155C3.74036 65.7043 3.21025 65.6953 2.55633 65.6953C1.90242 65.6953 1.37231 65.7043 1.37231 65.7155C1.37231 65.7268 1.90242 65.7358 2.55633 65.7358Z" fill="#111111"/>
<path d="M1.50315 68.8706C1.51311 68.8706 1.52119 68.3597 1.52119 67.7294C1.52119 67.0992 1.51311 66.5883 1.50315 66.5883C1.49318 66.5883 1.48511 67.0992 1.48511 67.7294C1.48511 68.3597 1.49318 68.8706 1.50315 68.8706Z" fill="#0B0B0B"/>
<path d="M1.51882 64.0713C1.51882 64.5495 1.51882 65.0276 1.51882 65.5034C1.5098 65.5034 1.49852 65.5034 1.4895 65.5034C1.4895 65.0231 1.4895 64.5427 1.4895 64.0623C1.49852 64.0646 1.50754 64.0668 1.51882 64.0713Z" fill="#0B0B0B"/>
<path d="M5.8176 64.8516C5.82757 64.8516 5.83564 64.6891 5.83564 64.4885C5.83564 64.288 5.82757 64.1254 5.8176 64.1254C5.80764 64.1254 5.79956 64.288 5.79956 64.4885C5.79956 64.6891 5.80764 64.8516 5.8176 64.8516Z" fill="#131313"/>
<path d="M4.34253 64.9757C4.34253 64.8472 4.34253 64.7186 4.34253 64.5901C4.35155 64.5901 4.36057 64.5878 4.37185 64.5878C4.37185 64.7164 4.37185 64.8427 4.37185 64.9712C4.36057 64.9735 4.35155 64.9735 4.34253 64.9757Z" fill="#131313"/>
<path d="M6.10408 68.1309C6.07476 67.9527 6.06574 67.84 6.1131 67.6663C6.14242 67.84 6.15144 67.955 6.10408 68.1309Z" fill="#121212"/>
<path d="M4.04067 62.8287C3.90986 62.8287 3.7768 62.8287 3.646 62.8287C3.77906 62.7881 3.91212 62.7204 4.04067 62.8287Z" fill="#171717"/>
<path d="M4.04028 62.8287C4.11471 62.8287 4.19139 62.8287 4.33798 62.8287C4.18462 62.8986 4.1102 62.9099 4.04028 62.8287Z" fill="#171717"/>
<path d="M46.8028 67.1633C46.7983 68.097 46.1893 68.7307 45.3233 68.7059C45.1632 68.7014 45.0166 68.6541 44.8745 68.5954C44.3355 68.3722 44.0761 67.9391 44.0197 67.3798C43.9543 66.7281 44.1145 66.1552 44.7099 65.7989C45.1902 65.5125 45.6977 65.526 46.1668 65.8327C46.6381 66.1439 46.796 66.6221 46.8028 67.1633Z" fill="#FEFEFE"/>
<path d="M48.3178 62.3619C48.3178 64.7389 48.3156 67.116 48.3246 69.4953C48.3246 69.7411 48.2773 69.8449 48.0066 69.8269C47.6503 69.802 47.2917 69.8201 46.9331 69.7637C47.2894 69.7637 47.6458 69.7524 47.9999 69.7682C48.2073 69.7772 48.2637 69.7028 48.2637 69.5021C48.257 67.125 48.257 64.748 48.257 62.3686C48.275 62.3416 48.2953 62.3416 48.3178 62.3619Z" fill="#161616"/>
<path d="M46.9222 62.3664C46.9222 63.2347 46.9222 64.1053 46.9222 64.9735C46.9019 64.9735 46.8838 64.9735 46.8635 64.9735C46.8635 64.103 46.8635 63.2325 46.8635 62.3619C46.8861 62.3394 46.9041 62.3439 46.9222 62.3664Z" fill="#0B0B0B"/>
<path d="M46.9222 62.3664C46.9019 62.3641 46.8838 62.3641 46.8635 62.3619C47.3484 62.2694 47.8333 62.2672 48.3182 62.3619C48.2979 62.3641 48.2776 62.3641 48.2573 62.3664C47.813 62.3664 47.3687 62.3664 46.9222 62.3664Z" fill="#212121"/>
<path d="M44.4863 64.4119C44.8088 64.4119 45.1291 64.4119 45.4516 64.4119C45.4516 64.4209 45.4516 64.4299 45.4516 64.4412C45.1313 64.4412 44.8111 64.4412 44.4886 64.4412C44.4886 64.4322 44.4863 64.4231 44.4863 64.4119Z" fill="#101010"/>
<path d="M46.8772 67.6031C46.8772 67.3167 46.8772 67.0325 46.8772 66.7461C46.8862 66.7461 46.8952 66.7461 46.9043 66.7461C46.9043 67.0325 46.9043 67.3189 46.9043 67.6031C46.8952 67.6031 46.8862 67.6031 46.8772 67.6031Z" fill="#0F0F0F"/>
<path d="M42.522 67.7272C42.5332 67.7272 42.5423 67.4515 42.5423 67.1115C42.5423 66.7714 42.5332 66.4958 42.522 66.4958C42.5108 66.4958 42.5017 66.7714 42.5017 67.1115C42.5017 67.4515 42.5108 67.7272 42.522 67.7272Z" fill="#1B1B1B"/>
<path d="M45.6301 68.8187C45.4812 68.8187 45.3346 68.8187 45.1858 68.8187C45.1858 68.8097 45.1858 68.7984 45.1858 68.7894C45.3346 68.7894 45.4812 68.7894 45.6301 68.7894C45.6301 68.7984 45.6301 68.8097 45.6301 68.8187Z" fill="#232323"/>
<path d="M45.2983 65.4855C45.3931 65.4471 45.4855 65.4358 45.587 65.4742C45.4833 65.5418 45.3886 65.4922 45.2983 65.4855Z" fill="#141414"/>
<path d="M45.2822 69.8539C45.3409 69.7998 45.3995 69.8178 45.4649 69.8359C45.4063 69.9103 45.3476 69.8764 45.2822 69.8539Z" fill="#171717"/>
<path d="M101.755 67.1972C101.732 68.0632 101.177 68.6902 100.42 68.706C99.4701 68.7263 98.8138 67.9031 98.9717 66.8882C99.098 66.0718 99.7205 65.5418 100.469 65.614C101.265 65.6907 101.78 66.3244 101.755 67.1972Z" fill="#FEFEFE"/>
<path d="M103.2 69.7592C103.2 67.3911 103.198 65.0231 103.207 62.6528C103.207 62.4228 103.144 62.3438 102.912 62.3574C102.583 62.3754 102.251 62.3641 101.922 62.3641C101.899 62.3889 101.881 62.3889 101.861 62.3596C102.285 62.2288 102.72 62.3326 103.151 62.3078C103.219 62.3032 103.252 62.3551 103.257 62.4228C103.259 62.4904 103.261 62.5581 103.261 62.6257C103.261 64.9239 103.261 67.2198 103.259 69.5179C103.259 69.6194 103.302 69.7344 103.203 69.8178C103.182 69.8043 103.176 69.793 103.18 69.7772C103.189 69.766 103.196 69.7592 103.2 69.7592Z" fill="#1C1C1C"/>
<path d="M101.863 62.3619C101.883 62.3641 101.904 62.3641 101.924 62.3664C101.924 63.255 101.924 64.1435 101.924 65.0321C101.904 65.0321 101.883 65.0321 101.863 65.0321C101.863 64.1413 101.863 63.2527 101.863 62.3619Z" fill="#0D0D0D"/>
<path d="M103.2 69.7592C103.2 69.7795 103.203 69.7998 103.203 69.8201C102.864 69.8201 102.524 69.8043 102.185 69.8246C101.935 69.8404 101.818 69.7727 101.861 69.5066C101.874 69.4231 101.863 69.3352 101.863 69.2337C101.895 69.2563 101.915 69.263 101.915 69.272C101.946 69.7614 101.944 69.7614 102.445 69.7614C102.697 69.7614 102.95 69.7592 103.2 69.7592Z" fill="#131313"/>
<path d="M99.4319 64.4164C99.7566 64.4164 100.081 64.4164 100.406 64.4164C100.406 64.4254 100.406 64.4367 100.406 64.4457C100.081 64.4457 99.7566 64.4457 99.4319 64.4457C99.4319 64.4367 99.4319 64.4254 99.4319 64.4164Z" fill="#101010"/>
<path d="M97.4945 67.5467C97.366 67.3031 97.4652 67.0461 97.4923 66.7957C97.4923 67.0461 97.4923 67.2986 97.4945 67.5467Z" fill="#1A1A1A"/>
<path d="M98.8477 67.4159C98.8477 67.2265 98.8477 67.0393 98.8477 66.8499C98.8567 66.8499 98.868 66.8499 98.877 66.8499C98.877 67.0393 98.877 67.2287 98.877 67.4182C98.868 67.4182 98.8589 67.4159 98.8477 67.4159Z" fill="#181818"/>
<path d="M100.568 68.8187C100.42 68.8187 100.271 68.8187 100.122 68.8187C100.122 68.8097 100.122 68.7984 100.122 68.7894C100.273 68.7894 100.424 68.7894 100.577 68.7894C100.573 68.7984 100.571 68.8074 100.568 68.8187Z" fill="#232323"/>
<path d="M99.4092 69.8585C99.5716 69.8089 99.6618 69.8134 99.7542 69.8585C99.6663 69.8585 99.5761 69.8585 99.4092 69.8585Z" fill="#151515"/>
<path d="M100.589 65.4697C100.426 65.5193 100.334 65.5148 100.241 65.4697C100.332 65.4697 100.422 65.4697 100.589 65.4697Z" fill="#141414"/>
<path d="M97.4922 67.549C97.5914 67.6347 97.535 67.7362 97.4944 67.8377C97.4944 67.7407 97.4944 67.6437 97.4922 67.549C97.4944 67.5467 97.4922 67.549 97.4922 67.549Z" fill="#1A1A1A"/>
<path d="M101.847 67.6279C101.782 67.5557 101.816 67.4948 101.804 67.3866C101.883 67.4903 101.859 67.5512 101.847 67.6279Z" fill="#1A1A1A"/>
<path d="M101.838 66.7213C101.877 66.7845 101.874 66.8431 101.838 66.9198C101.793 66.8454 101.789 66.7867 101.838 66.7213Z" fill="#161616"/>
<path d="M13.7131 69.7637C13.7131 67.2965 13.7131 64.8292 13.7131 62.3619C13.7334 62.3416 13.7537 62.3416 13.7718 62.3664C13.7718 64.8315 13.7718 67.2965 13.7718 69.7615C13.7515 69.7818 13.7334 69.784 13.7131 69.7637Z" fill="#0A0A0A"/>
<path d="M13.7718 62.3664C13.7515 62.3641 13.7334 62.3641 13.7131 62.3619C14.1394 62.2311 14.5724 62.3326 15.0032 62.31C15.1092 62.3055 15.1092 62.4025 15.1092 62.4814C15.1092 63.7602 15.1092 65.0366 15.1092 66.356C15.0212 66.2342 15.0528 66.1395 15.0528 66.0515C15.0505 64.9171 15.0437 63.7827 15.0573 62.6483C15.0595 62.4138 14.9874 62.3438 14.7596 62.3574C14.4303 62.3777 14.101 62.3641 13.7718 62.3664Z" fill="#1E1E1E"/>
<path d="M13.7131 69.7637C13.7334 69.7637 13.7515 69.7615 13.7718 69.7615C14.101 69.7615 14.4303 69.7502 14.7573 69.766C14.9783 69.7773 15.0708 69.7164 15.0573 69.4773C15.037 69.1322 15.0528 68.7849 15.1069 68.4354C15.1069 68.8571 15.1069 69.2788 15.1069 69.6983C15.1069 69.7637 15.0686 69.8156 15.0009 69.8111C14.5724 69.7908 14.1371 69.89 13.7131 69.7637Z" fill="#1A1A1A"/>
<path d="M9.80497 67.5175C9.94029 67.5175 10.0756 67.5175 10.2109 67.5175C10.6259 67.5175 10.6259 67.5175 10.5921 67.937C10.5763 68.1287 10.4951 68.2888 10.371 68.4309C10.0418 68.8053 9.33813 68.9699 8.87354 68.7872C8.54652 68.6587 8.38415 68.3993 8.42023 68.0633C8.4518 67.7678 8.65478 67.5761 9.02013 67.5468C9.27949 67.5243 9.5411 67.5423 9.80271 67.5423C9.80497 67.531 9.80497 67.5243 9.80497 67.5175Z" fill="#FDFDFD"/>
<path d="M12.0801 66.1056C12.0801 67.2784 12.0779 68.4511 12.0824 69.6216C12.0824 69.7772 12.0192 69.8246 11.8727 69.8201C11.611 69.8133 11.3494 69.8178 11.0878 69.8178C10.6525 69.8178 10.6525 69.8178 10.7067 69.3532C10.7991 69.475 10.6571 69.6735 10.8104 69.7389C10.9277 69.7885 11.0765 69.7592 11.2119 69.7614C11.3968 69.7637 11.5817 69.7502 11.7644 69.766C11.9741 69.784 12.026 69.696 12.0238 69.4976C12.0147 68.4602 12.0192 67.4205 12.0192 66.383C12.0192 66.2883 12.0192 66.1936 12.0192 66.0989C12.0395 66.1011 12.0598 66.1034 12.0801 66.1056Z" fill="#1E1E1E"/>
<path d="M9.5815 66.7236C10.3039 66.7236 10.8896 66.7155 10.8896 66.7055C10.8896 66.6956 10.3039 66.6875 9.5815 66.6875C8.85908 66.6875 8.27344 66.6956 8.27344 66.7055C8.27344 66.7155 8.85908 66.7236 9.5815 66.7236Z" fill="#181818"/>
<path d="M9.81155 67.4228C10.3521 67.4228 10.7903 67.4147 10.7903 67.4048C10.7903 67.3948 10.3521 67.3867 9.81155 67.3867C9.27098 67.3867 8.83276 67.3948 8.83276 67.4048C8.83276 67.4147 9.27098 67.4228 9.81155 67.4228Z" fill="#101010"/>
<path d="M9.06299 64.4164C9.50502 64.4164 9.94706 64.4164 10.3891 64.4164C10.3891 64.4254 10.3891 64.4367 10.3891 64.4457C9.94931 64.4457 9.50728 64.4457 9.0675 64.4457C9.06524 64.4344 9.06299 64.4254 9.06299 64.4164Z" fill="#101010"/>
<path d="M9.11255 65.4064C9.30199 65.4064 9.48918 65.4064 9.67862 65.4064C9.67862 65.4155 9.67862 65.4222 9.67862 65.4313C9.48918 65.4313 9.30199 65.4313 9.11255 65.4313C9.11255 65.4245 9.11255 65.4155 9.11255 65.4064Z" fill="#0E0E0E"/>
<path d="M7.05764 68.0293C7.05764 68.1782 7.05764 68.327 7.05764 68.4759C7.04862 68.4759 7.03734 68.4759 7.02832 68.4759C7.02832 68.3248 7.02832 68.1714 7.02832 68.0203C7.03734 68.0226 7.04862 68.0248 7.05764 68.0293Z" fill="#1B1B1B"/>
<path d="M9.50504 68.9946C9.37649 68.9946 9.24794 68.9946 9.11938 68.9946C9.11938 68.9856 9.11938 68.9743 9.11938 68.9653C9.24794 68.9653 9.37649 68.9653 9.50504 68.9653C9.50504 68.9743 9.50504 68.9856 9.50504 68.9946Z" fill="#191919"/>
<path d="M8.30298 68.3519C8.30298 68.2233 8.30298 68.0948 8.30298 67.9662C8.312 67.9662 8.32328 67.9662 8.3323 67.9662C8.3323 68.0948 8.3323 68.2233 8.3323 68.3541C8.32328 68.3519 8.312 68.3519 8.30298 68.3519Z" fill="#1A1A1A"/>
<path d="M10.6912 68.0023C10.6912 67.8738 10.6912 67.7452 10.6912 67.6144C10.7002 67.6144 10.7115 67.6144 10.7205 67.6144C10.7205 67.743 10.7205 67.8715 10.7205 68.0023C10.7115 68.0023 10.7024 68.0023 10.6912 68.0023Z" fill="#161616"/>
<path d="M9.39187 69.8697C9.34 69.8697 9.28813 69.8697 9.22949 69.8697C9.27911 69.7795 9.34451 69.8449 9.39187 69.8697Z" fill="#161616"/>
<path d="M74.9871 66.6717C75.1201 65.7561 75.8756 65.2622 76.7123 65.5283C77.1386 65.6636 77.4633 66.0786 77.4972 66.5161C77.5062 66.6244 77.4927 66.674 77.3686 66.674C76.577 66.6695 75.7832 66.6717 74.9871 66.6717Z" fill="#FDFDFD"/>
<path d="M77.4385 66.7799C76.6514 66.7799 75.862 66.7799 75.075 66.7799C75.075 66.7709 75.075 66.7619 75.075 66.7506C75.862 66.7506 76.6491 66.7506 77.4362 66.7506C77.4385 66.7619 77.4385 66.7709 77.4385 66.7799Z" fill="#161616"/>
<path d="M75.7651 64.4164C76.1079 64.4164 76.453 64.4164 76.7958 64.4164C76.7958 64.4254 76.7958 64.4344 76.7958 64.4434C76.453 64.4434 76.1079 64.4434 75.7651 64.4434C75.7651 64.4344 75.7651 64.4254 75.7651 64.4164Z" fill="#141414"/>
<path d="M73.5481 66.6154C73.5481 66.9649 73.5481 67.3145 73.5481 67.6641C73.4511 67.3145 73.4511 66.9649 73.5481 66.6154Z" fill="#161616"/>
<path d="M76.6941 68.8728C76.5204 68.8728 76.3468 68.8728 76.1731 68.8728C76.1731 68.8638 76.1731 68.8548 76.1731 68.8458C76.3468 68.8458 76.5204 68.8458 76.6941 68.8458C76.6941 68.8548 76.6941 68.8638 76.6941 68.8728Z" fill="#181818"/>
<path d="M76.054 65.3501C76.2096 65.3501 76.3629 65.3501 76.5185 65.3501C76.5185 65.3591 76.5185 65.3681 76.5185 65.3772C76.3629 65.3772 76.2096 65.3772 76.054 65.3772C76.054 65.3681 76.054 65.3591 76.054 65.3501Z" fill="#1F1F1F"/>
<path d="M76.5925 69.8313C76.6827 69.8313 76.7752 69.8313 76.8925 69.8313C76.7752 69.9147 76.6782 69.8561 76.5925 69.8313Z" fill="#171717"/>
<path d="M76.0353 69.8494C75.9135 69.8832 75.839 69.89 75.7466 69.8517C75.8368 69.8021 75.9135 69.8178 76.0353 69.8494Z" fill="#191919"/>
<path d="M78.8481 66.559C78.9406 66.6447 78.909 66.7439 78.8504 66.8454C78.8504 66.7484 78.8504 66.6537 78.8481 66.559Z" fill="#1A1A1A"/>
<path d="M78.8502 66.5567C78.7645 66.4913 78.796 66.4079 78.7983 66.2951C78.8795 66.3966 78.8366 66.4823 78.8502 66.5567C78.8479 66.559 78.8502 66.5567 78.8502 66.5567Z" fill="#1D1D1D"/>
<path d="M73.5481 66.6153C73.5481 66.5409 73.5481 66.4642 73.5481 66.3176C73.618 66.4687 73.627 66.5454 73.5481 66.6153Z" fill="#161616"/>
<path d="M73.548 67.664C73.6247 67.7317 73.6201 67.8106 73.5818 67.9053C73.5187 67.8241 73.5615 67.7407 73.548 67.664Z" fill="#171717"/>
<path d="M55.1338 69.7591C55.1338 69.7794 55.1361 69.7997 55.1361 69.82C54.7685 69.82 54.4008 69.8133 54.0332 69.8223C53.8618 69.8268 53.7806 69.7794 53.7942 69.5945C53.8055 69.4231 53.7964 69.2495 53.8145 69.0758C53.8844 69.2247 53.8573 69.3825 53.8506 69.5336C53.8438 69.714 53.916 69.7704 54.0896 69.7637C54.4369 69.7546 54.7865 69.7591 55.1338 69.7591Z" fill="#131313"/>
<path d="M52.6258 68.6383C52.5107 68.6383 52.398 68.6383 52.283 68.6383C52.283 68.6293 52.283 68.6203 52.283 68.6113C52.398 68.6113 52.5107 68.6113 52.6258 68.6113C52.628 68.6203 52.6258 68.6293 52.6258 68.6383Z" fill="#1B1A1B"/>
<path d="M51.3178 67.7655C51.2862 67.6369 51.2772 67.5625 51.3155 67.4813C51.3697 67.5648 51.3561 67.6415 51.3178 67.7655Z" fill="#1B1B1B"/>
<path d="M51.4104 69.8629C51.4645 69.7998 51.5232 69.8313 51.5976 69.8246C51.5344 69.9103 51.4713 69.8561 51.4104 69.8629Z" fill="#181818"/>
<path d="M52.0845 69.8629C52.1589 69.7975 52.2198 69.8313 52.3303 69.8201C52.222 69.8967 52.1612 69.8742 52.0845 69.8629Z" fill="#181818"/>
<path d="M22.0557 66.6717C21.6881 66.6717 21.3205 66.6672 20.9529 66.674C20.8199 66.6762 20.7928 66.6402 20.8176 66.5071C20.9191 65.9365 21.4513 65.4764 22.0445 65.4629C22.7008 65.4471 23.1676 65.8102 23.3029 66.4304C23.3435 66.6199 23.3074 66.6875 23.0999 66.6785C22.7504 66.6605 22.4031 66.6717 22.0557 66.6717Z" fill="#FDFDFD"/>
<path d="M24.7213 67.4904C24.6649 67.5671 24.5815 67.5468 24.507 67.5468C23.3253 67.5468 22.1458 67.5468 20.964 67.5468C20.9369 67.5468 20.9099 67.5355 20.8828 67.4859C22.1413 67.4859 23.402 67.4859 24.6604 67.4859C24.6852 67.4588 24.7055 67.4633 24.7213 67.4904Z" fill="#272727"/>
<path d="M20.8896 66.7416C21.6767 66.7416 22.4661 66.7416 23.2532 66.7416C23.2532 66.7507 23.2532 66.7619 23.2532 66.7709C22.4661 66.7709 21.6767 66.7709 20.8896 66.7709C20.8896 66.7619 20.8896 66.7529 20.8896 66.7416Z" fill="#161616"/>
<path d="M21.5886 64.4142C21.9337 64.4142 22.2765 64.4142 22.6215 64.4142C22.6215 64.4232 22.6215 64.4345 22.6215 64.4435C22.2787 64.4435 21.9382 64.4435 21.5954 64.4435C21.5931 64.4345 21.5909 64.4255 21.5886 64.4142Z" fill="#141414"/>
<path d="M19.3157 67.5941C19.3157 67.2919 19.3157 66.9897 19.3157 66.6875C19.3247 66.6875 19.336 66.6875 19.345 66.6875C19.345 66.992 19.345 67.2942 19.345 67.5986C19.336 67.5964 19.327 67.5941 19.3157 67.5941Z" fill="#1A1A1A"/>
<path d="M24.7212 67.4903C24.7009 67.4881 24.6829 67.4858 24.6626 67.4858C24.6626 67.1791 24.6626 66.8746 24.6626 66.5679C24.6829 66.5679 24.7009 66.5679 24.7212 66.5679C24.7212 66.8746 24.7212 67.1836 24.7212 67.4903Z" fill="#0F0F0F"/>
<path d="M22.4978 68.8774C22.3512 68.8774 22.2023 68.8774 22.0557 68.8774C22.0557 68.8684 22.0557 68.8571 22.0535 68.8481C22.2001 68.8481 22.3489 68.8481 22.4955 68.8481C22.4978 68.8571 22.4978 68.8684 22.4978 68.8774Z" fill="#181818"/>
<path d="M21.8794 65.3434C22.0282 65.3434 22.1748 65.3434 22.3237 65.3434C22.3237 65.3524 22.3237 65.3637 22.3237 65.3727C22.1748 65.3727 22.026 65.3727 21.8794 65.3727C21.8794 65.3637 21.8794 65.3547 21.8794 65.3434Z" fill="#202020"/>
<path d="M22.416 69.8178C22.5062 69.8223 22.5964 69.8268 22.7521 69.8359C22.5874 69.89 22.4882 69.8945 22.416 69.8178Z" fill="#171717"/>
<path d="M21.8006 69.8427C21.7217 69.881 21.6495 69.8923 21.5706 69.8562C21.6495 69.784 21.7307 69.8427 21.8006 69.8427Z" fill="#181818"/>
<path d="M23.4423 66.4034C23.4378 66.4756 23.4333 66.5477 23.4265 66.6515C23.3588 66.5387 23.3882 66.4598 23.4423 66.4034Z" fill="#131313"/>
<path d="M41.3269 69.7614C41.3652 69.7614 41.4058 69.7614 41.4442 69.7614C40.9999 69.8877 40.5466 69.793 40.0978 69.8133C39.9918 69.8178 39.9895 69.7209 39.9895 69.6419C39.9895 68.6744 39.9895 67.7092 40.0459 66.7416C40.0459 67.0145 40.0459 67.2852 40.0459 67.558C40.0459 68.1963 40.0572 68.8368 40.0414 69.475C40.0346 69.7118 40.1158 69.7772 40.3391 69.766C40.6683 69.7502 40.9976 69.7614 41.3269 69.7614Z" fill="#161616"/>
<path d="M37.4253 69.7614C37.405 69.7614 37.387 69.7614 37.3667 69.7592C37.3667 68.8706 37.3667 67.982 37.3667 67.0934C37.387 67.0934 37.405 67.0934 37.4253 67.0934C37.4253 67.9843 37.4253 68.8728 37.4253 69.7614Z" fill="#090909"/>
<path d="M38.9993 64.4186C39.3037 64.4186 39.6104 64.4186 39.9149 64.4186C39.9149 64.4254 39.9149 64.4344 39.9149 64.4412C39.6104 64.4412 39.3037 64.4412 38.9993 64.4412C38.9993 64.4322 38.9993 64.4254 38.9993 64.4186Z" fill="#111111"/>
<path d="M38.9043 65.6748C38.9923 65.6027 39.0509 65.6343 39.1366 65.6297C39.0531 65.7154 38.9923 65.6703 38.9043 65.6748Z" fill="#191919"/>
<path d="M38.7151 65.6546C38.6542 65.6952 38.5956 65.6907 38.5144 65.6568C38.5911 65.614 38.6497 65.6117 38.7151 65.6546Z" fill="#1C1C1C"/>
<path d="M82.154 68.9338C81.9668 68.9338 81.7819 68.9338 81.5947 68.9338C81.5947 68.9248 81.5947 68.9135 81.5947 68.9045C81.7842 68.9045 81.9736 68.9045 82.1631 68.9045C82.1608 68.9158 82.1563 68.9248 82.154 68.9338Z" fill="#181818"/>
<path d="M79.8694 66.374C79.8806 66.374 79.8897 66.2084 79.8897 66.0041C79.8897 65.7998 79.8806 65.6342 79.8694 65.6342C79.8582 65.6342 79.8491 65.7998 79.8491 66.0041C79.8491 66.2084 79.8582 66.374 79.8694 66.374Z" fill="#1F1F1F"/>
<path d="M82.2285 64.4006C82.0774 64.4006 81.9263 64.4006 81.7751 64.4006C81.9285 64.3645 82.0819 64.2879 82.2285 64.4006Z" fill="#161616"/>
<path d="M81.6061 69.8516C81.4888 69.8855 81.3918 69.8945 81.2791 69.8449C81.3941 69.8088 81.491 69.8043 81.6061 69.8516Z" fill="#171717"/>
<path d="M84.0801 68.4286C84.0124 68.2685 84.0372 68.1693 84.044 68.0001C84.1139 68.1693 84.0913 68.2663 84.0801 68.4286Z" fill="#191919"/>
<path d="M82.2288 64.4029C82.3415 64.4029 82.4543 64.4029 82.5671 64.4029C82.452 64.448 82.337 64.5043 82.2288 64.4029C82.2288 64.4006 82.2288 64.4029 82.2288 64.4029Z" fill="#131313"/>
<path d="M81.5744 64.4479C81.5023 64.4479 81.4278 64.4479 81.3286 64.4479C81.4301 64.3825 81.5068 64.3983 81.5744 64.4479Z" fill="#161616"/>
<path d="M82.0908 65.3749C82.163 65.3095 82.2239 65.3434 82.3344 65.3321C82.2261 65.411 82.1652 65.3885 82.0908 65.3749Z" fill="#1B1B1B"/>
<path d="M58.3518 68.9022C58.5615 68.9022 58.769 68.9022 58.9788 68.9022C58.9788 68.9112 58.9788 68.9225 58.9788 68.9315C58.7713 68.9315 58.5661 68.9315 58.3586 68.9315C58.3563 68.9202 58.3541 68.9112 58.3518 68.9022Z" fill="#191919"/>
<path d="M60.7991 68.4692C60.7991 68.3226 60.7991 68.176 60.7991 68.0272C60.8081 68.0272 60.8194 68.0272 60.8284 68.0272C60.8284 68.1738 60.8284 68.3204 60.8284 68.4692C60.8194 68.4669 60.8081 68.4692 60.7991 68.4692Z" fill="#131313"/>
<path d="M56.6086 66.2049C56.6086 66.0695 56.6086 65.9342 56.6086 65.7989C56.6177 65.7989 56.6289 65.7989 56.638 65.7989C56.638 65.9342 56.638 66.0695 56.638 66.2049C56.6267 66.2049 56.6177 66.2049 56.6086 66.2049Z" fill="#1F1F1F"/>
<path d="M58.9811 64.4006C58.83 64.4006 58.6811 64.4006 58.53 64.4006C58.6811 64.3645 58.8345 64.2879 58.9811 64.4006Z" fill="#1C1C1C"/>
<path d="M58.9812 64.403C59.112 64.403 59.2451 64.403 59.3759 64.403C59.2428 64.4436 59.1075 64.509 58.9812 64.403C58.9812 64.4007 58.9812 64.403 58.9812 64.403Z" fill="#121212"/>
<path d="M57.9912 69.8201C58.122 69.8201 58.2551 69.8201 58.3859 69.8201C58.2528 69.8607 58.1198 69.9283 57.9912 69.8201Z" fill="#161616"/>
<path d="M58.9294 69.8313C59.0197 69.8313 59.1121 69.8313 59.2023 69.8313C59.2023 69.8403 59.2046 69.8493 59.2046 69.8584C59.1144 69.8584 59.0242 69.8584 58.9362 69.8584C58.934 69.8493 58.9317 69.8403 58.9294 69.8313Z" fill="#171717"/>
<path d="M57.9911 69.8201C57.9166 69.8201 57.84 69.8201 57.6934 69.8201C57.8445 69.7502 57.9211 69.7412 57.9911 69.8201Z" fill="#161616"/>
<path d="M89.2766 62.7701C89.2766 64.6352 89.2766 66.4981 89.2766 68.3632C89.1796 68.2662 89.2225 68.1421 89.2225 68.0316C89.2202 66.4123 89.2157 64.7908 89.2247 63.1715C89.227 62.9167 89.1751 62.7949 88.8932 62.8265C88.6722 62.8513 88.4467 62.8468 88.2257 62.8265C87.9843 62.8039 87.9347 62.9031 87.9347 63.1264C87.9415 65.3388 87.9392 67.5513 87.9392 69.7637C87.9189 69.784 87.8986 69.7862 87.8783 69.7637C87.8783 67.4859 87.8783 65.208 87.8716 62.9325C87.8716 62.7926 87.9077 62.7723 88.0249 62.7746C88.4422 62.7723 88.8594 62.7701 89.2766 62.7701Z" fill="#080808"/>
<path d="M87.8801 69.7593C87.9004 69.7593 87.9207 69.7593 87.941 69.7593C89.319 69.7593 90.697 69.7548 92.0749 69.766C92.3005 69.7683 92.3907 69.7119 92.3726 69.4751C92.3523 69.2067 92.3681 68.9361 92.4245 68.6655C92.4245 69.0038 92.429 69.3421 92.4223 69.6826C92.42 69.872 92.2644 69.8202 92.1606 69.8202C91.2676 69.8247 90.3745 69.8224 89.4814 69.8224C88.9582 69.8224 88.4327 69.8224 87.9094 69.8224C87.9004 69.8224 87.8869 69.8179 87.8846 69.8112C87.8801 69.7931 87.8801 69.7773 87.8801 69.7593Z" fill="#151515"/>
<path d="M63.8726 64.6938C64.3259 64.6938 64.7183 64.6442 65.0927 64.7074C65.4625 64.7705 65.2145 65.1156 65.2663 65.3276C65.2956 65.4516 65.3272 65.632 65.0814 65.6275C64.7048 65.6185 64.3281 65.6253 63.9492 65.5689C64.2717 65.5689 64.5965 65.5576 64.919 65.5734C65.14 65.5846 65.228 65.526 65.219 65.2847C65.1942 64.6577 65.2911 64.7637 64.7002 64.7547C64.4589 64.7502 64.2154 64.7525 63.974 64.7502C63.9673 64.7479 63.9605 64.7389 63.8726 64.6938Z" fill="#151515"/>
<path d="M62.3911 69.2539C62.4011 69.2539 62.4091 68.3341 62.4091 67.1994C62.4091 66.0647 62.4011 65.1448 62.3911 65.1448C62.3811 65.1448 62.373 66.0647 62.373 67.1994C62.373 68.3341 62.3811 69.2539 62.3911 69.2539Z" fill="#111111"/>
<path d="M63.7126 68.2324C63.7126 67.425 63.7126 66.6176 63.7126 65.8102C63.7217 65.8102 63.7329 65.8102 63.742 65.8102C63.742 66.6176 63.742 67.4273 63.742 68.2347C63.7307 68.2347 63.7217 68.2324 63.7126 68.2324Z" fill="#141414"/>
<path d="M62.1723 64.7074C61.6017 64.7908 61.6017 64.7909 61.6039 65.2464C61.6062 65.5396 61.6062 65.5396 62.1136 65.6005C61.9287 65.614 61.6558 65.72 61.5791 65.5554C61.4731 65.3231 61.4664 64.9916 61.5791 64.766C61.6761 64.5811 61.9693 64.7367 62.1723 64.7074Z" fill="#191919"/>
<path d="M64.6215 68.7602C64.4749 68.7602 64.326 68.7602 64.1794 68.7602C64.1794 68.7511 64.1794 68.7399 64.1794 68.7308C64.3283 68.7308 64.4749 68.7308 64.6237 68.7308C64.6215 68.7421 64.6215 68.7511 64.6215 68.7602Z" fill="#111111"/>
<path d="M64.3328 69.8471C64.3959 69.811 64.4545 69.811 64.5312 69.8471C64.4568 69.89 64.3982 69.8922 64.3328 69.8471Z" fill="#151515"/>
<path d="M93.8498 68.7015C93.7032 67.7294 93.7889 66.7552 93.7618 65.7831C93.7912 65.7831 93.8205 65.7831 93.8498 65.7809C93.8498 66.7552 93.8498 67.7294 93.8498 68.7015Z" fill="#0A0A0A"/>
<path d="M95.406 65.5689C95.7533 65.5689 96.1006 65.5621 96.4457 65.5711C96.6238 65.5756 96.6825 65.5102 96.678 65.3366C96.6622 64.6194 96.7569 64.7682 96.1299 64.7524C95.8706 64.7457 95.6112 64.7524 95.3496 64.6961C95.7646 64.6961 96.1953 64.6284 96.59 64.7164C96.926 64.793 96.6667 65.1629 96.7321 65.3907C96.7637 65.5012 96.7501 65.6275 96.5697 65.6252C96.1841 65.6207 95.7984 65.623 95.4128 65.623C95.4105 65.6049 95.4082 65.5869 95.406 65.5689Z" fill="#1A191A"/>
<path d="M95.194 68.7354C95.2027 68.7354 95.2098 67.966 95.2098 67.0169C95.2098 66.0677 95.2027 65.2983 95.194 65.2983C95.1853 65.2983 95.1782 66.0677 95.1782 67.0169C95.1782 67.966 95.1853 68.7354 95.194 68.7354Z" fill="#151515"/>
<path d="M93.6629 64.6826C93.4689 64.8788 93.0585 64.5134 93.063 65.0208C93.0675 65.5305 93.0562 65.5305 93.5817 65.6027C93.3945 65.6095 93.1194 65.7267 93.0427 65.5508C92.9389 65.3163 92.9277 64.9848 93.0472 64.7615C93.1396 64.5856 93.4351 64.7299 93.6629 64.6826Z" fill="#1B1B1B"/>
<path d="M95.7581 69.9035C95.855 69.7907 95.9159 69.8381 95.9836 69.8133C95.9227 69.9261 95.8595 69.8494 95.7581 69.9035Z" fill="#161616"/>
<path d="M28.8463 65.6455C29.1417 65.6771 29.1733 65.5125 29.153 65.2869C29.1394 65.1223 29.1372 64.9554 29.153 64.793C29.1755 64.5653 29.1304 64.4119 28.844 64.439C29.1191 64.3442 29.2364 64.4209 29.2116 64.7096C29.1936 64.9306 29.1913 65.1561 29.2116 65.3771C29.2409 65.6748 29.1079 65.7312 28.8463 65.6455Z" fill="#141414"/>
<path d="M69.4073 65.6411C69.6599 65.6704 69.7253 65.5509 69.705 65.3321C69.6892 65.1494 69.7005 64.9645 69.7027 64.7796C69.705 64.5856 69.732 64.3736 69.405 64.448C69.6576 64.3623 69.7884 64.4075 69.7636 64.6961C69.7433 64.9172 69.7433 65.1427 69.7636 65.3637C69.7884 65.6411 69.6914 65.7448 69.4073 65.6411Z" fill="#171717"/>
<path d="M67.9256 67.107C67.8872 67.0168 67.8827 66.9582 67.9233 66.8973C67.9707 66.9582 67.9616 67.0168 67.9256 67.107Z" fill="#1D1D1D"/>
<path d="M34.2183 69.7591C34.2183 69.7794 34.2206 69.7997 34.2206 69.82C33.8327 69.82 33.4448 69.8133 33.0569 69.8223C32.881 69.8268 32.8201 69.7704 32.8201 69.59C32.8246 67.3573 32.8246 65.1268 32.8246 62.8941C32.8246 62.876 32.8359 62.858 32.881 62.8377C32.881 62.9324 32.881 63.0271 32.881 63.1241C32.881 65.2306 32.8855 67.3347 32.8742 69.4412C32.8719 69.6983 32.9419 69.7817 33.199 69.7659C33.5372 69.7434 33.8778 69.7591 34.2183 69.7591Z" fill="#121212"/>
<path d="M59.2562 48.2167C58.2098 48.228 57.355 47.3936 57.337 46.3426C57.3189 45.2917 58.1443 44.4256 59.1908 44.3986C60.244 44.3715 61.1506 45.2556 61.1529 46.3065C61.1529 47.3372 60.2891 48.2055 59.2562 48.2167Z" fill="#F2A828"/>
<path d="M58.9426 43.0161C59.1298 42.847 59.317 42.8447 59.5042 43.0161L59.5064 43.0139C59.317 43.0161 59.1298 43.0161 58.9426 43.0161Z" fill="#141414"/>
<path d="M58.9425 43.0162C58.8162 43.1831 58.6561 43.1154 58.426 43.1222C58.6313 42.9598 58.7959 43.041 58.9425 43.0162Z" fill="#141414"/>
<path d="M59.5042 43.0162C59.6507 43.0162 59.7973 43.0162 60.0815 43.0162C59.7906 43.1515 59.6417 43.1718 59.5042 43.0162C59.5064 43.0162 59.5042 43.0162 59.5042 43.0162Z" fill="#141414"/>
<path d="M70.7783 62.928C70.7467 62.8017 70.7332 62.7227 70.7828 62.6415C70.8234 62.7272 70.8166 62.8039 70.7783 62.928Z" fill="#222222"/>
<path d="M72.2917 62.8986C72.2556 62.8084 72.2488 62.7295 72.2985 62.6415C72.3345 62.7318 72.3413 62.8107 72.2917 62.8986Z" fill="#181818"/>
<path d="M71.6558 63.5504C71.5679 63.5977 71.507 63.5977 71.4438 63.5639C71.498 63.5053 71.5589 63.5278 71.6558 63.5504Z" fill="#191919"/>
</svg>
