<svg width="134" height="80" viewBox="0 0 134 80" fill="none" xmlns="http://www.w3.org/2000/svg">
<path d="M75.404 29.174C74.2126 24.2759 69.8176 20.834 64.6812 20.834C57.7974 20.834 50.9136 20.8605 44.0298 20.8605C43.0237 20.8605 42.5207 20.5692 42.2559 19.8014C42.0176 19.0601 42.2294 18.4776 43.0237 17.8951C50.5429 12.2557 58.0886 6.61631 65.6079 1.00337C67.4347 -0.373385 70.0823 -0.320432 71.9621 1.0828C79.6402 6.88108 87.3183 12.6793 94.9964 18.4776C96.4261 19.5631 97.0615 21.0723 97.0615 22.8462C97.0615 34.5751 97.0615 46.304 97.0615 58.0594C97.0615 59.4362 96.5849 60.6541 95.6053 61.6337C94.5992 62.6398 93.3813 63.1164 92.0046 63.1958C91.7133 63.2223 91.4221 63.1958 91.1573 63.1958C74.3185 63.1958 57.4532 63.1958 40.5879 63.1958C40.1643 63.1958 39.8731 63.2488 39.6348 63.6724C38.7346 65.2874 36.8548 66.0288 35.1074 65.5257C33.3599 65.0491 32.1685 63.4871 32.142 61.6867C32.1156 59.8863 33.307 58.2712 35.0279 57.7682C36.7754 57.2387 38.6552 57.9271 39.6083 59.5156C39.8731 59.9657 40.1378 60.0981 40.6409 60.0981C51.1254 60.0716 61.5835 60.0981 72.068 60.0981C78.3429 60.0981 83.5852 56.2855 85.5179 50.3814C87.4771 44.3713 84.7236 37.3286 79.1901 34.2839C78.793 34.0721 78.6871 34.0721 78.5812 34.5486C77.4162 40.3469 72.5976 44.9008 66.7993 45.6951C66.614 45.7216 66.4021 45.6951 66.2168 45.7216C66.058 45.801 65.8726 45.7745 65.6873 45.7745C58.4858 45.7745 51.3108 45.7745 44.1092 45.7745C43.9504 45.7745 43.7915 45.801 43.6592 45.748C43.262 44.8479 43.4473 43.9477 43.5268 43.021C43.5532 42.7562 43.818 42.6503 44.0828 42.6239C44.374 42.5974 44.6652 42.5974 44.93 42.5974C51.4961 42.5974 58.0622 42.5974 64.6018 42.5974C64.946 42.5974 65.3166 42.6239 65.6608 42.5709C68.3349 42.2267 70.6913 41.1677 72.5976 39.2084C74.1597 37.5934 75.0863 35.6606 75.4835 33.4366C75.5099 33.2513 75.5099 33.0924 75.4835 32.9071C75.0334 31.6892 75.1658 30.4184 75.404 29.174Z" fill="black"/>
<path d="M65.8461 42.6768C65.4754 42.8886 65.0783 42.8091 64.6812 42.8091C57.9033 42.8091 51.1254 42.8091 44.3475 42.8091C43.765 42.8091 43.5267 42.9151 43.5797 43.5505C43.6326 44.2653 43.6062 45.0067 43.6326 45.7215C43.6856 45.748 43.6856 45.7745 43.6591 45.8274C43.6326 45.8539 43.6326 45.8804 43.6062 45.8804C43.5797 45.9333 43.5267 45.9863 43.5003 46.0392C43.3414 46.1187 43.4208 46.2775 43.4208 46.4099C43.4208 48.3427 43.4208 50.2754 43.4208 52.2082C43.4208 52.3406 43.3414 52.5259 43.5267 52.6318C43.5532 52.6583 43.6062 52.6847 43.6326 52.7377C43.8444 52.9495 44.0827 52.8436 44.321 52.8436C52.5551 52.8436 60.7892 52.8436 68.9968 52.8436C69.844 52.8436 69.897 52.8701 69.8705 53.7438C69.844 54.4057 70.0293 55.0676 69.7381 55.703C69.4998 55.8089 69.2615 55.756 69.0232 55.756C59.7831 55.756 50.5429 55.756 41.3292 55.756C40.429 55.756 40.5085 55.8354 40.5085 54.9352C40.5085 52.2082 40.5085 49.4811 40.5085 46.7276C40.5085 46.6482 40.3761 46.7276 40.4555 46.7011C40.482 46.7011 40.5085 46.7011 40.5085 46.7276C40.482 49.6665 40.5085 52.5788 40.5085 55.5177C40.5085 55.5971 40.482 55.703 40.4555 55.7825C40.2702 55.5706 40.3496 55.3324 40.3496 55.0941C40.3496 52.2611 40.3231 49.4282 40.3496 46.5952C40.3496 46.0922 40.1907 45.9598 39.7142 45.9598C37.4902 45.9863 35.2662 45.9598 33.0422 45.9598C32.8039 45.9598 32.5656 46.0392 32.3273 45.8804C32.4332 45.7745 32.5656 45.801 32.698 45.801C35.0279 45.801 37.3578 45.801 39.6877 45.801C39.7671 45.801 39.8466 45.8274 39.7936 45.801C37.4637 45.801 35.0279 45.801 32.5656 45.801C32.4862 45.801 32.3803 45.8274 32.3273 45.8804C32.1685 45.7745 32.2214 45.6156 32.2214 45.4568C32.2214 42.465 32.2214 39.4732 32.2214 36.4814C32.2214 36.349 32.1685 36.1636 32.3273 36.0577C32.5391 36.2166 32.8039 36.1372 33.0422 36.1372C35.3456 36.1372 37.649 36.1372 39.9525 36.1372C37.649 36.1372 35.3456 36.1372 33.0422 36.1372C32.8039 36.1372 32.5656 36.2166 32.3273 36.0577C32.5391 35.8989 32.8039 35.9783 33.0422 35.9783C35.2662 35.9783 37.4902 35.9518 39.7142 35.9783C40.2172 35.9783 40.3496 35.8195 40.3496 35.3429C40.3231 33.5955 40.3231 31.8216 40.3496 30.0477C40.3496 29.8358 40.2702 29.5976 40.429 29.4122C40.5879 29.8358 40.482 30.2859 40.5085 30.7096C40.5349 32.1922 40.5085 33.6484 40.5085 35.1311C40.5085 33.4895 40.5085 31.848 40.5085 30.2065C40.5085 29.4917 40.5085 29.4917 41.2233 29.4917C52.1315 29.4917 63.0396 29.4917 73.9743 29.4917C74.1596 29.4917 74.345 29.4917 74.5038 29.4917C63.3309 29.4917 52.105 29.4917 40.8791 29.4917C40.7203 29.4917 40.5614 29.5446 40.429 29.4122C40.6673 29.2004 40.9321 29.3063 41.1968 29.3063C52.3433 29.3063 63.4897 29.3063 74.6362 29.3063C74.901 29.3063 75.2187 29.4387 75.4305 29.1475C75.6423 29.3593 75.4834 29.5976 75.4834 29.8094C75.4569 30.7096 75.4834 31.6097 75.4569 32.5099C75.4569 32.6953 75.6158 32.7482 75.6423 32.9071C75.5099 33.013 75.351 33.013 75.1922 33.013C64.84 32.9335 54.4879 32.9865 44.1622 32.9865C43.9768 32.9865 43.818 33.013 43.6326 32.96C43.6062 32.96 43.6062 32.9336 43.5797 32.9336C43.5532 32.9336 43.5532 32.9336 43.5267 32.9071C43.5797 35.8724 43.5267 38.8642 43.5532 41.8295C43.5532 42.0678 43.5797 42.2796 43.7915 42.412C44.1357 42.5444 44.4799 42.4914 44.8505 42.4914C51.4696 42.4914 58.0886 42.4914 64.6812 42.4914C65.0518 42.465 65.5019 42.3591 65.8461 42.6768Z" fill="#767475"/>
<path d="M69.7911 52.5789C70.7707 50.6991 72.5976 49.8254 74.5833 50.3549C76.3572 50.8315 77.6015 52.5789 77.5221 54.4852C77.4427 56.2062 76.1454 57.7683 74.5038 58.1654C72.7035 58.589 70.9296 57.8742 70.0823 56.365C69.9764 55.2266 70.0558 54.1146 70.0294 53.1349C70.0294 53.7704 70.0294 54.5647 70.0294 55.3854C70.0294 55.5707 70.1882 55.8355 69.844 55.9149H69.8176C69.7117 54.8029 69.7381 53.6909 69.7911 52.5789Z" fill="black"/>
<path d="M40.4291 55.756C40.4291 52.4995 40.4291 49.2429 40.4291 45.9863C40.482 45.9863 40.5085 45.9863 40.5615 45.9863C40.5615 46.7806 40.5615 47.5749 40.5615 48.3427C40.5615 50.5137 40.5879 52.6583 40.535 54.8294C40.535 55.4648 40.6938 55.6501 41.3293 55.6501C50.7812 55.6236 60.2067 55.6236 69.6587 55.6236C69.6852 55.6501 69.7117 55.6766 69.7117 55.7295C69.7117 55.7825 69.6852 55.7825 69.6852 55.7825C60.0479 55.7825 50.4106 55.7825 40.7733 55.7825C40.6409 55.809 40.535 55.7825 40.4291 55.756Z" fill="#737272"/>
<path d="M69.6852 55.7824C69.6852 55.7295 69.6852 55.6765 69.6852 55.6236C69.6852 54.9352 69.6587 54.2468 69.7117 53.5849C69.7646 53.0289 69.5793 52.8436 68.9968 52.8436C64.8136 52.8701 60.6304 52.8436 56.4472 52.8436C52.4228 52.8436 48.3984 52.8436 44.374 52.8436C44.1357 52.8436 43.8445 52.976 43.6592 52.6847C52.1051 52.6847 60.551 52.6847 68.9968 52.6847C69.2881 52.6847 69.5793 52.7377 69.8176 52.5788C69.8176 53.6908 69.8176 54.8028 69.8441 55.9148C69.7646 55.8619 69.7117 55.8354 69.6852 55.7824Z" fill="#605E5F"/>
<path d="M43.6061 45.8539C43.6061 45.801 43.6061 45.7745 43.6061 45.7215C50.9665 45.7215 58.3269 45.7215 65.6872 45.7215C65.8461 45.7215 66.0049 45.748 66.1373 45.748C65.6872 45.9069 65.2107 45.8539 64.7606 45.8539C57.7444 45.8539 50.6753 45.8539 43.6061 45.8539Z" fill="#0C0C0C"/>
<path d="M43.5003 52.6055C43.3679 52.5525 43.3414 52.4201 43.3414 52.2877C43.3414 50.2226 43.3414 48.1839 43.3414 46.1188C43.3414 46.0923 43.3679 46.0394 43.3944 46.0129C43.4209 45.9864 43.4738 46.0129 43.5003 46.0129C43.5003 48.2104 43.5003 50.4079 43.5003 52.6055Z" fill="#615F60"/>
<path d="M69.8176 55.9149C70.0823 55.253 69.8705 54.5646 69.9235 53.9027C69.9499 53.5321 69.9235 53.1614 70.0558 52.7907C70.0558 53.2673 70.0558 53.7439 70.0558 54.2205C70.0558 54.9353 70.0558 55.6502 70.0294 56.365C69.9235 56.2326 69.844 56.0738 69.8176 55.9149Z" fill="#0D0D0D"/>
<path d="M82.0495 60.1246C83.2145 59.1979 84.2205 58.3242 85.0678 57.3446C92.4281 48.8457 89.5952 35.6341 79.3754 30.9214C78.9253 30.7096 78.74 30.4978 78.687 29.9683C78.0516 23.9582 72.9152 18.7159 66.9052 17.8951C64.9194 17.6304 62.9337 17.7628 60.948 17.7628C56.8972 17.7363 52.8198 17.7628 48.769 17.7628C48.716 17.7628 48.6366 17.7628 48.5572 17.7363C48.5837 17.445 48.822 17.3921 48.9808 17.2862C55.0703 12.7323 61.1598 8.17839 67.2493 3.6245C68.3084 2.85669 69.2086 2.85669 70.2676 3.65098C77.8133 9.34334 85.359 15.0357 92.9047 20.7281C93.6725 21.3106 93.9902 22.0519 93.9902 23.005C93.9902 26.4734 93.9902 29.9418 93.9902 33.3837C93.9902 41.3795 93.9902 49.4017 93.9902 57.3975C93.9902 59.3303 93.2489 60.0716 91.3161 60.0716C88.2979 60.1246 85.2796 60.1246 82.0495 60.1246Z" fill="#F2A828"/>
<path d="M33.9424 61.6602C33.9424 60.4423 34.922 59.4098 36.1399 59.3833C37.3578 59.3568 38.4433 60.4159 38.4168 61.6338C38.4168 62.8517 37.4108 63.8578 36.1664 63.8578C34.9485 63.8842 33.9424 62.9046 33.9424 61.6602Z" fill="#F2A828"/>
<path d="M40.0584 62.9576C57.4268 62.9576 74.7951 62.9576 92.1634 62.9576C92.1634 62.9841 92.1634 63.0105 92.1634 63.0105C74.7951 63.0105 57.4268 63.0105 40.0584 63.0105C40.0584 62.9841 40.0584 62.9841 40.0584 62.9576Z" fill="#141414"/>
<path d="M94.2815 22.3432C94.2815 34.3633 94.2815 46.3835 94.2815 58.3772C94.255 58.3772 94.2286 58.3772 94.2286 58.3772C94.2286 46.357 94.2286 34.3368 94.2286 22.3167C94.2551 22.3167 94.255 22.3167 94.2815 22.3432Z" fill="#110800"/>
<path d="M40.0584 60.31C51.2049 60.31 62.3513 60.31 73.4978 60.31C73.4978 60.3365 73.4978 60.363 73.4978 60.363C62.3513 60.363 51.2049 60.363 40.0849 60.363C40.0584 60.3365 40.0584 60.3365 40.0584 60.31Z" fill="#191919"/>
<path d="M65.3166 43.074C58.1681 43.074 51.0195 43.074 43.871 43.074C43.818 43.127 43.7915 43.127 43.7386 43.074C43.9239 42.8622 44.1887 42.9416 44.427 42.9416C51.3902 42.9416 58.3534 42.9416 65.3166 42.9416C65.3696 42.9681 65.3696 42.9946 65.3696 43.0211C65.3431 43.0475 65.3166 43.074 65.3166 43.074Z" fill="#0F0F0F"/>
<path d="M51.6814 20.5693C51.8668 20.3575 52.1315 20.4369 52.3698 20.4369C56.5266 20.4369 60.6833 20.4369 64.8401 20.4369C65.3431 20.4369 65.8461 20.5428 66.3227 20.6487C61.4246 20.3575 56.553 20.7546 51.6549 20.7017C51.602 20.6752 51.602 20.6487 51.602 20.6222C51.6549 20.5958 51.6549 20.5693 51.6814 20.5693Z" fill="#0F0F0F"/>
<path d="M48.6631 17.9481C54.4349 17.9481 60.1803 17.9481 65.9521 17.9481C65.9521 17.9746 65.9521 18.001 65.9521 18.001C60.1803 18.001 54.4349 18.001 48.6631 18.001C48.6631 18.001 48.6631 17.9746 48.6631 17.9481Z" fill="#201301"/>
<path d="M92.2693 60.3893C88.9863 60.3893 85.7033 60.3893 82.4202 60.3893C82.4202 60.3628 82.4202 60.3364 82.4202 60.3364C85.7033 60.3364 89.0128 60.3364 92.2958 60.3364C92.2958 60.3364 92.2958 60.3628 92.2693 60.3893Z" fill="#110700"/>
<path d="M51.6814 20.5692C51.6814 20.6221 51.6814 20.6486 51.6814 20.7016C49.0073 20.7016 46.3068 20.7016 43.6327 20.7016C43.6327 20.6486 43.6327 20.6221 43.6327 20.5692C46.3068 20.5692 49.0073 20.5692 51.6814 20.5692Z" fill="#222222"/>
<path d="M88.9862 44.9538C88.9862 45.8805 88.9862 46.7807 88.9862 47.7073C88.9598 47.7073 88.9333 47.7073 88.9333 47.7073C88.9333 46.7807 88.9333 45.8805 88.9333 44.9538C88.9333 44.9538 88.9598 44.9538 88.9862 44.9538Z" fill="#1C1001"/>
<path d="M43.7386 43.0739C43.7915 43.0739 43.818 43.0739 43.871 43.0739C43.871 43.8682 43.871 44.636 43.871 45.4303C43.818 45.4303 43.7915 45.4303 43.7386 45.4303C43.7386 44.636 43.7386 43.8682 43.7386 43.0739Z" fill="#0C0C0C"/>
<path d="M32.3803 62.2427C32.3803 61.8191 32.3803 61.3955 32.3803 60.9718C32.4068 60.9718 32.4068 60.9718 32.4333 60.9718C32.4333 61.3955 32.4333 61.8191 32.4333 62.2162C32.4333 62.2427 32.4068 62.2427 32.3803 62.2427Z" fill="#141414"/>
<path d="M65.952 45.5627C65.5813 45.5627 65.1842 45.5627 64.8135 45.5627C64.8135 45.5362 64.8135 45.5098 64.8135 45.5098C65.1842 45.5098 65.5549 45.5098 65.952 45.5098C65.952 45.5098 65.952 45.5362 65.952 45.5627Z" fill="#0C0C0C"/>
<path d="M69.2881 0.288578C68.8909 0.288578 68.5202 0.288578 68.1231 0.288578C68.1231 0.262102 68.1231 0.262102 68.1231 0.235626C68.5202 0.235626 68.8909 0.235626 69.2881 0.235626C69.2881 0.235626 69.2881 0.262102 69.2881 0.288578Z" fill="#242424"/>
<path d="M86.3652 45.5891C86.577 46.0657 86.577 46.5688 86.3652 47.0453C86.3652 46.5688 86.3652 46.0657 86.3652 45.5891Z" fill="#121212"/>
<path d="M86.3651 45.5892C86.1268 45.298 86.2592 44.9803 86.3651 44.6625C86.3651 44.9803 86.3651 45.2715 86.3651 45.5892Z" fill="#121212"/>
<path d="M86.3387 47.0453C86.3387 47.3101 86.3387 47.5484 86.3387 47.8132C86.2327 47.5484 86.1533 47.2836 86.3387 47.0453Z" fill="#121212"/>
<path d="M74.5833 60.1511C74.398 60.3894 74.1597 60.257 73.9214 60.1511C74.1597 60.1511 74.3715 60.1511 74.5833 60.1511Z" fill="#131313"/>
<path d="M35.6898 65.3669C35.5575 65.4463 35.3986 65.4463 35.2397 65.3669C35.3986 65.2875 35.531 65.2875 35.6898 65.3669Z" fill="#111111"/>
<path d="M74.5833 60.151C74.7422 59.9392 74.9275 60.0451 75.1923 60.0186C74.954 60.2039 74.7422 60.1245 74.5833 60.151Z" fill="#131313"/>
<path d="M66.8787 45.4039C67.0111 45.2715 67.1435 45.3244 67.3023 45.3509C67.17 45.5362 67.0376 45.4568 66.8787 45.4039Z" fill="#131313"/>
<path d="M65.3166 43.0739C65.3166 43.021 65.3166 42.9945 65.3166 42.9416C65.4754 42.9416 65.6608 42.9416 65.8196 42.9416C65.8196 42.968 65.8196 43.021 65.8196 43.0475C65.6608 43.0475 65.4754 43.0739 65.3166 43.0739Z" fill="#0C0C0C"/>
<path d="M75.8277 33.569C75.7218 33.4366 75.7482 33.3042 75.8277 33.1189C75.9336 33.2777 75.9336 33.4101 75.8277 33.569Z" fill="#1B1B1B"/>
<path d="M36.9607 65.4462C36.8548 65.4462 36.6165 65.4462 36.6165 65.4197C36.5901 65.2609 36.7489 65.3403 36.8283 65.3403C36.8813 65.3403 36.9342 65.3668 36.9872 65.3668C36.9872 65.3668 36.9872 65.4197 36.9607 65.4462Z" fill="#111111"/>
<path d="M37.8609 42.7032C37.199 42.7032 36.5371 42.7032 35.8752 42.7032C35.531 42.7032 35.3986 42.5973 35.4251 42.2531C35.4516 41.4059 35.4516 40.5322 35.4251 39.6585C35.4251 39.3408 35.5045 39.1819 35.8487 39.1819C37.2255 39.2084 38.5758 39.1819 39.9525 39.1819C40.2437 39.1819 40.3497 39.2878 40.3497 39.5791C40.3497 40.4792 40.3232 41.3794 40.3497 42.2796C40.3497 42.5973 40.2173 42.7032 39.926 42.6768C39.2112 42.7032 38.5228 42.7032 37.8609 42.7032Z" fill="#FDFDFD"/>
<path d="M40.4025 29.4387C44.5063 29.4387 48.6101 29.4387 52.7139 29.4387C59.9684 29.4387 67.2228 29.4387 74.4773 29.4387C74.7156 29.4387 74.9539 29.4387 75.1922 29.4387C75.1922 29.4916 75.1922 29.5181 75.1922 29.5711C74.9539 29.5711 74.7156 29.5711 74.5038 29.5711C63.4897 29.5711 52.4492 29.5711 41.4351 29.5711C40.5614 29.5711 40.5614 29.5711 40.5614 30.4183C40.5614 32.1922 40.5614 33.9926 40.429 35.7665C40.429 33.6484 40.429 31.5303 40.4025 29.4387C40.429 29.4122 40.4025 29.4387 40.4025 29.4387Z" fill="#6D6B6C"/>
<path d="M43.5003 32.9072C43.5003 35.8195 43.5267 38.7584 43.5267 41.6708C43.5267 41.9885 43.5267 42.3327 43.5532 42.6504C43.3414 42.571 43.3679 42.3856 43.3679 42.2003C43.3679 39.1555 43.3679 36.1108 43.3679 33.0396C43.3679 32.9866 43.3944 32.9072 43.4208 32.8542C43.3944 32.8807 43.4473 32.9072 43.5003 32.9072Z" fill="#615F60"/>
<path d="M32.3539 45.8539C32.4598 45.801 32.5392 45.7215 32.6451 45.7215C35.1604 45.7215 37.6491 45.7215 40.1643 45.8539C37.5432 45.8539 34.9485 45.8539 32.3539 45.8539Z" fill="#626061"/>
<path d="M32.3539 36.0578C34.9485 36.0578 37.5432 36.0578 40.1908 36.0578C40.1379 36.1372 40.1379 36.1902 40.1114 36.1902C37.6491 36.1902 35.1868 36.1902 32.7245 36.1902C32.5657 36.1902 32.4333 36.1637 32.3539 36.0578Z" fill="#676566"/>
<path d="M37.8344 39.0761C39.6329 39.0761 41.091 39.0524 41.091 39.0231C41.091 38.9939 39.6329 38.9702 37.8344 38.9702C36.0358 38.9702 34.5778 38.9939 34.5778 39.0231C34.5778 39.0524 36.0358 39.0761 37.8344 39.0761Z" fill="#6D6B6C"/>
<path d="M40.482 42.4915C40.482 41.459 40.482 40.3999 40.482 39.3673C40.5085 39.3673 40.5349 39.3673 40.5349 39.3673C40.5349 40.4264 40.5349 41.459 40.5349 42.518C40.5085 42.518 40.482 42.518 40.482 42.4915Z" fill="#6A6869"/>
<path d="M73.4977 56.6033C72.2798 56.6033 71.2737 55.6502 71.2472 54.4058C71.2208 53.1614 72.2004 52.1553 73.4183 52.1289C74.6627 52.1024 75.7217 53.1349 75.7217 54.3793C75.7217 55.5443 74.7156 56.5768 73.4977 56.6033Z" fill="#F2A828"/>
<path d="M73.1271 50.4873C73.3389 50.2754 73.5772 50.2754 73.789 50.4873C73.5772 50.4873 73.3389 50.4873 73.1271 50.4873Z" fill="#141414"/>
<path d="M73.1271 50.4872C72.9682 50.6726 72.7829 50.5931 72.5181 50.6196C72.7564 50.4078 72.9682 50.5137 73.1271 50.4872Z" fill="#141414"/>
<path d="M73.789 50.4873C73.9479 50.4873 74.1332 50.4873 74.4774 50.4873C74.1332 50.6462 73.9479 50.6726 73.789 50.4873Z" fill="#141414"/>
<path d="M111.994 79.8758C111.412 79.8758 110.803 79.8758 110.167 79.8758C110.167 79.7699 110.167 79.6639 110.167 79.5845C110.167 78.6049 110.167 77.6518 110.167 76.6721C110.167 76.0897 109.876 75.719 109.373 75.6396C108.87 75.5337 108.367 75.7984 108.182 76.3015C108.102 76.5133 108.049 76.7516 108.049 76.9899C108.023 77.8371 108.049 78.7108 108.049 79.5581C108.049 79.664 108.049 79.7699 108.049 79.8758C107.414 79.8758 106.805 79.8758 106.169 79.8758C106.169 79.7699 106.169 79.6639 106.169 79.5845C106.169 78.6314 106.169 77.6782 106.169 76.7251C106.169 76.3015 106.037 75.9043 105.613 75.6925C105.19 75.5072 104.819 75.5866 104.475 75.8779C104.184 76.1161 104.051 76.4339 104.025 76.7781C103.998 77.6782 103.998 78.5784 103.998 79.4786C103.998 79.611 103.998 79.7169 103.998 79.8493C103.363 79.8493 102.78 79.8493 102.145 79.8493C102.145 77.9165 102.145 75.9838 102.145 74.051C102.754 74.051 103.336 74.051 103.998 74.051C103.998 74.3158 103.998 74.607 103.998 74.9247C105.031 73.5215 107.255 73.6539 107.89 75.216C107.917 75.163 107.943 75.1101 107.97 75.0836C108.552 74.051 109.85 73.6274 110.935 74.1569C111.676 74.5276 112.021 75.163 112.047 75.9573C112.074 77.2281 112.047 78.5255 112.047 79.7963C112.021 79.8228 111.994 79.8493 111.994 79.8758Z" fill="black"/>
<path d="M0 79.8758C0 77.3606 0 74.8453 0 72.3301C0.0794284 72.3301 0.132381 72.3036 0.185333 72.3036C1.45619 72.3036 2.72704 72.2771 3.9979 72.3301C4.47447 72.3566 4.95104 72.489 5.37465 72.6743C6.03656 72.9655 6.38075 73.495 6.38075 74.2364C6.35427 74.9777 5.98361 75.4808 5.29523 75.772C5.24228 75.7985 5.2158 75.8249 5.16285 75.8514C5.2158 75.8779 5.26875 75.9044 5.3217 75.9308C6.11599 76.1956 6.56608 76.7781 6.61903 77.5988C6.69846 78.4461 6.3278 79.0815 5.58646 79.4787C5.08342 79.7699 4.50094 79.8758 3.94494 79.8758C2.67409 79.9023 1.42971 79.8758 0.158857 79.8758C0.105905 79.8758 0.0529523 79.8758 0 79.8758ZM1.90628 78.4196C2.4358 78.4196 2.93885 78.4196 3.41542 78.4196C3.60075 78.4196 3.81256 78.3931 3.9979 78.3402C4.39504 78.2343 4.63332 77.943 4.60685 77.5724C4.60685 77.2282 4.39504 76.884 3.9979 76.831C3.30952 76.7516 2.59466 76.7516 1.90628 76.6987C1.90628 77.3076 1.90628 77.8371 1.90628 78.4196ZM1.90628 75.2954C2.51523 75.2954 3.12418 75.3219 3.73314 75.2954C4.13028 75.2689 4.36856 74.9512 4.36856 74.5541C4.36856 74.1569 4.15675 73.8392 3.75961 73.8128C3.15066 73.7598 2.54171 73.8128 1.87981 73.8128C1.87981 74.2629 1.87981 74.6865 1.87981 75.1101C1.87981 75.163 1.90628 75.2425 1.90628 75.2954Z" fill="black"/>
<path d="M51.046 79.8758C50.4106 79.8758 49.8016 79.8758 49.1927 79.8758C49.1927 79.664 49.1927 79.4522 49.1927 79.2404C49.1397 79.2404 49.1132 79.2404 49.1132 79.2404C47.6306 80.6171 45.3801 79.9817 44.8506 78.0225C44.5329 76.9105 44.6388 75.8514 45.3536 74.8718C46.0685 73.9187 47.9748 73.4686 49.1662 74.7394C49.1662 73.7598 49.1662 72.8067 49.1662 71.8535C49.8281 71.8535 50.437 71.8535 51.046 71.8535C51.046 74.5276 51.046 77.2017 51.046 79.8758ZM49.1662 76.9369C49.1662 76.884 49.1662 76.7516 49.1397 76.6192C49.0338 76.0103 48.6102 75.5602 48.0807 75.5072C47.4452 75.4278 46.9422 75.719 46.7039 76.3015C46.4921 76.831 46.5186 77.3605 46.7569 77.8636C47.0216 78.3666 47.4982 78.6049 48.0807 78.5255C48.7426 78.3931 49.1662 77.8106 49.1662 76.9369Z" fill="black"/>
<path d="M133.81 79.8758C133.175 79.8758 132.593 79.8758 131.957 79.8758C131.957 79.664 131.957 79.4521 131.957 79.1874C131.878 79.2403 131.851 79.2403 131.825 79.2668C130.951 80.3523 128.568 80.2464 127.774 78.4725C127.297 77.387 127.297 76.3015 127.853 75.2425C128.701 73.6804 130.898 73.6009 131.825 74.66C131.851 74.6865 131.878 74.6864 131.957 74.7394C131.957 74.2364 131.957 73.7598 131.957 73.2832C131.957 72.8066 131.957 72.3301 131.957 71.827C132.593 71.827 133.201 71.827 133.81 71.827C133.81 74.5276 133.81 77.2017 133.81 79.8758ZM131.931 76.9104C131.931 76.8575 131.904 76.6986 131.878 76.5663C131.745 75.9308 131.295 75.5072 130.686 75.4807C130.051 75.4543 129.574 75.7984 129.389 76.4603C129.283 76.8575 129.283 77.2282 129.415 77.6253C129.627 78.3137 130.263 78.6579 130.951 78.499C131.56 78.3402 131.931 77.7577 131.931 76.9104Z" fill="black"/>
<path d="M20.2542 79.8758C19.5129 79.8758 18.8245 79.8758 18.1361 79.8758C18.0831 79.8758 18.0037 79.7699 17.9508 79.6904C17.5536 79.0285 17.183 78.3402 16.7858 77.6253C16.4416 77.9695 16.0445 78.2342 16.1504 78.7902C16.2033 79.1344 16.1504 79.4786 16.1504 79.8493C15.515 79.8493 14.906 79.8493 14.2971 79.8493C14.2971 77.1752 14.2971 74.5276 14.2971 71.827C14.906 71.827 15.515 71.827 16.1504 71.827C16.1504 73.2303 16.1504 74.607 16.1504 76.0632C16.574 75.6131 16.9711 75.216 17.3418 74.8188C17.4477 74.7129 17.5801 74.607 17.6595 74.4746C17.9243 74.051 18.295 73.9716 18.7715 73.9981C19.2216 74.0245 19.6982 73.9981 20.2277 73.9981C19.91 74.3423 19.6452 74.6335 19.354 74.8983C18.9833 75.2689 18.6391 75.6661 18.2685 76.0367C18.1361 76.1691 18.1096 76.275 18.2155 76.4603C18.8245 77.44 19.4334 78.4461 20.0424 79.4257C20.0953 79.611 20.1748 79.7169 20.2542 79.8758Z" fill="black"/>
<path d="M37.8873 74.051C38.5228 74.051 39.1052 74.051 39.7407 74.051C39.7407 74.3158 39.7407 74.607 39.7407 74.9512C39.873 74.8188 39.9525 74.7129 40.0319 74.6335C41.038 73.5745 42.9443 73.7598 43.5797 75.0307C43.7386 75.3219 43.818 75.6661 43.8445 76.0103C43.8709 77.2017 43.8709 78.3931 43.8709 79.5846C43.8709 79.664 43.8709 79.7434 43.8709 79.8493C43.262 79.8493 42.653 79.8493 42.0176 79.8493C42.0176 79.7434 42.0176 79.664 42.0176 79.5581C42.0176 78.6314 42.0176 77.7047 42.0176 76.8046C42.0176 76.0632 41.6734 75.6661 41.0645 75.6131C40.4555 75.5602 39.8995 76.0103 39.8466 76.6457C39.7936 77.0693 39.8201 77.5194 39.8201 77.943C39.8201 78.5785 39.8201 79.2139 39.8201 79.8758C39.1847 79.8758 38.5757 79.8758 37.9403 79.8758C37.8873 77.943 37.8873 76.0103 37.8873 74.051Z" fill="black"/>
<path d="M58.2739 79.8758C57.6385 79.8758 57.056 79.8758 56.4206 79.8758C56.4206 79.5845 56.4206 79.3198 56.4206 78.9491C56.1029 79.3727 55.7852 79.6904 55.3351 79.8228C54.1172 80.22 52.5286 79.7963 52.4492 77.9165C52.3962 76.6722 52.4227 75.4013 52.4227 74.1304C52.4227 74.104 52.4227 74.0775 52.4492 74.0245C53.0581 74.0245 53.6671 74.0245 54.3025 74.0245C54.3025 74.4746 54.3025 74.9247 54.3025 75.3748C54.3025 75.9308 54.3025 76.4868 54.3025 77.0428C54.3025 77.1752 54.3025 77.3076 54.329 77.44C54.4084 77.9165 54.6732 78.2078 55.0703 78.2872C55.5469 78.3666 55.997 78.1813 56.1823 77.7577C56.3147 77.4664 56.3941 77.1222 56.3941 76.8045C56.4206 75.9838 56.3941 75.1365 56.3941 74.3158C56.3941 74.2363 56.3941 74.1304 56.3941 74.0245C57.0295 74.0245 57.6385 74.0245 58.2474 74.0245C58.2739 76.0102 58.2739 77.9165 58.2739 79.8758Z" fill="black"/>
<path d="M8.15465 75.8249C7.99579 75.4542 7.81046 75.0571 7.6516 74.6334C8.23408 74.3422 8.79008 74.1569 9.42551 74.051C10.1139 73.9451 10.8023 73.9186 11.4906 74.1304C12.3908 74.4216 12.8939 75.0835 12.9204 76.0367C12.9204 77.3075 12.9204 78.5784 12.9204 79.8757C12.3114 79.8757 11.7289 79.8757 11.0935 79.8757C11.0935 79.6904 11.0935 79.505 11.0935 79.2668C10.9346 79.3991 10.8023 79.5315 10.6699 79.611C9.84912 80.0875 8.97541 80.1405 8.12818 79.6904C7.46627 79.3462 7.17504 78.5784 7.30742 77.7576C7.41332 77.0693 7.96932 76.5662 8.79008 76.4338C9.16074 76.3809 9.53141 76.3809 9.90208 76.3544C10.2727 76.3544 10.6434 76.3544 10.9876 76.3544C11.0935 75.9308 10.9082 75.6131 10.511 75.4542C10.0874 75.2954 9.66379 75.3218 9.24017 75.4542C8.86951 75.5601 8.52532 75.6925 8.15465 75.8249ZM11.0406 77.4134C10.564 77.4134 10.0874 77.387 9.61084 77.4134C9.24017 77.4399 9.05484 77.6252 9.02836 77.943C9.00189 78.3136 9.16074 78.5519 9.50493 78.6578C10.3522 78.9226 11.12 78.3136 11.0406 77.4134Z" fill="black"/>
<path d="M83.5321 77.4664C82.1819 77.4664 80.8581 77.4664 79.4548 77.4664C79.5607 77.9165 79.7725 78.2607 80.1962 78.4196C80.964 78.7373 81.6259 78.499 82.2348 77.9695C82.5261 78.2872 82.8438 78.6314 83.188 79.002C82.9232 79.1874 82.6055 79.4522 82.2878 79.611C81.4141 80.0346 80.5139 80.0611 79.5872 79.7963C78.1575 79.3992 77.4426 78.1283 77.6015 76.6986C77.7868 74.8453 79.1106 73.8392 81.0699 73.9981C82.8967 74.1569 83.744 75.6925 83.5321 77.4664ZM79.4548 76.4339C80.2226 76.4339 80.9904 76.4339 81.7583 76.4339C81.7847 75.772 81.3876 75.3219 80.7257 75.2689C80.0903 75.216 79.5607 75.6925 79.4548 76.4339Z" fill="black"/>
<path d="M126.874 77.4664C125.523 77.4664 124.173 77.4664 122.823 77.4664C122.982 78.6049 124.491 78.9755 125.55 77.9959C125.841 78.3136 126.159 78.6578 126.476 79.002C126.238 79.2932 125.868 79.5315 125.444 79.6904C124.544 80.0346 123.644 80.0611 122.743 79.7433C121.525 79.3197 120.837 78.1812 120.916 76.8045C121.049 74.9247 122.399 73.8392 124.332 73.998C126.265 74.1569 127.059 75.7454 126.874 77.4664ZM125.1 76.4338C125.073 75.719 124.65 75.2689 123.988 75.2689C123.379 75.2689 122.823 75.7984 122.823 76.4338C123.564 76.4338 124.305 76.4338 125.1 76.4338Z" fill="black"/>
<path d="M26.2378 77.4664C24.8611 77.4664 23.5108 77.4664 22.1605 77.4664C22.3194 78.5519 23.7491 79.002 24.914 77.9959C25.2317 78.3137 25.523 78.6579 25.8407 78.9756C25.5759 79.2668 25.2053 79.5051 24.8081 79.6639C23.9079 80.0081 22.9813 80.0346 22.0811 79.7169C20.8632 79.2933 20.1748 78.1548 20.2807 76.7781C20.4131 74.9512 21.7634 73.8392 23.5902 73.9716C25.6024 74.1304 26.3702 75.666 26.2378 77.4664ZM24.4374 76.4339C24.411 75.6925 23.9344 75.2424 23.2725 75.2689C22.6635 75.2954 22.134 75.8249 22.134 76.4339C22.9018 76.4339 23.6696 76.4339 24.4374 76.4339Z" fill="black"/>
<path d="M94.5992 78.2607C95.6847 78.2607 96.7438 78.2607 97.8028 78.2607C97.8028 78.8167 97.8028 79.3198 97.8028 79.8758C96.1084 79.8758 94.4139 79.8758 92.6929 79.8758C92.6929 77.3606 92.6929 74.8718 92.6929 72.3301C93.3284 72.3301 93.9373 72.3301 94.5992 72.3301C94.5992 74.2893 94.5992 76.2485 94.5992 78.2607Z" fill="black"/>
<path d="M59.1742 79.2139C59.4125 78.7373 59.5978 78.3666 59.7832 77.9695C60.0214 78.1019 60.2332 78.2078 60.4451 78.3137C60.9481 78.5519 61.4511 78.7108 62.0336 78.6578C62.2454 78.6314 62.4572 78.5784 62.5102 78.3137C62.5367 78.0754 62.3513 77.943 62.166 77.8636C61.7424 77.7047 61.3188 77.5988 60.9216 77.44C60.4451 77.2811 59.995 77.0693 59.7302 76.5927C59.2271 75.719 59.6508 74.554 60.6304 74.1569C61.663 73.7598 62.6955 73.8921 63.7016 74.2893C63.8605 74.3422 64.0193 74.4217 64.1517 74.5011C64.2047 74.5276 64.2311 74.5541 64.2841 74.607C64.0723 75.0041 63.8605 75.4013 63.6751 75.7455C63.1721 75.5866 62.6955 75.4013 62.1925 75.2689C62.0071 75.216 61.7953 75.216 61.61 75.2424C61.4776 75.2689 61.2923 75.4278 61.2658 75.5337C61.2393 75.6396 61.3717 75.8514 61.4776 75.9308C61.7424 76.0632 62.0071 76.1426 62.2984 76.222C62.6161 76.3279 62.9603 76.4339 63.278 76.5662C63.8869 76.8575 64.2841 77.3076 64.2841 78.0224C64.2841 78.7638 63.9399 79.2933 63.3045 79.611C62.4308 80.0346 61.5041 80.0081 60.6039 79.7699C60.1273 79.6639 59.6772 79.4257 59.1742 79.2139Z" fill="black"/>
<path d="M89.0657 74.6335C88.8539 75.0306 88.6421 75.4013 88.4568 75.7719C87.9537 75.6131 87.4772 75.4277 87.0006 75.2954C86.8153 75.2424 86.6035 75.2159 86.4181 75.2689C86.2593 75.2954 86.1004 75.4542 86.0474 75.5866C86.021 75.6925 86.1534 75.9043 86.2857 75.9573C86.6829 76.1161 87.08 76.222 87.4772 76.3809C87.8478 76.5397 88.245 76.6721 88.5627 76.9104C89.4364 77.5988 89.2246 79.0285 88.192 79.5845C87.5831 79.9287 86.8947 79.9816 86.2063 79.9287C85.4914 79.8757 84.8295 79.6639 84.2206 79.2933C84.1412 79.2403 84.0882 79.1873 84.0088 79.1344C84.1941 78.7373 84.4059 78.3666 84.5648 78.0224C85.0943 78.2342 85.5974 78.446 86.1004 78.6049C86.3387 78.6843 86.6299 78.6578 86.8947 78.6578C87.1065 78.6578 87.2654 78.5519 87.3183 78.3401C87.3713 78.1283 87.2124 77.9959 87.0271 77.9165C86.7888 77.8106 86.524 77.7312 86.2857 77.6517C85.9415 77.5194 85.5709 77.4135 85.2267 77.2546C84.6442 76.9898 84.3265 76.5397 84.3 75.8778C84.2736 75.2424 84.5383 74.7129 85.0943 74.3687C85.7033 73.998 86.3652 73.9186 87.0535 73.9716C87.7684 74.0245 88.6156 74.2893 89.0657 74.6335Z" fill="black"/>
<path d="M67.4876 72.7007C67.4876 73.2303 67.4876 73.7333 67.4876 74.2893C67.9907 74.2893 68.4937 74.2893 68.9968 74.2893C68.9968 74.7129 68.9968 75.1101 68.9968 75.5337C68.4937 75.5337 68.0172 75.5337 67.4876 75.5337C67.4876 75.7455 67.4876 75.9573 67.4876 76.1426C67.4876 76.7251 67.4876 77.2811 67.4876 77.8636C67.4876 78.3666 67.7524 78.552 68.2554 78.4461C68.4143 78.4196 68.5731 78.3666 68.7585 78.2872C68.8644 78.6844 68.9703 79.055 69.0762 79.4257C69.1027 79.4786 69.0497 79.5845 69.0232 79.611C68.3613 79.9817 67.0111 80.167 66.2697 79.5581C65.8726 79.2404 65.6608 78.8167 65.6608 78.3402C65.6343 77.4929 65.6343 76.6192 65.6343 75.772C65.6343 75.6926 65.6343 75.6131 65.6078 75.5337C65.3431 75.5337 65.1048 75.5337 64.8135 75.5337C64.8135 75.1101 64.8135 74.7394 64.8135 74.3158C65.0783 74.3158 65.3166 74.3158 65.6078 74.3158C65.6078 73.7598 65.6078 73.2567 65.6078 72.7007C66.2432 72.7007 66.8522 72.7007 67.4876 72.7007Z" fill="black"/>
<path d="M116.998 75.5337C116.707 75.5337 116.468 75.5337 116.204 75.5337C116.204 75.1366 116.204 74.7394 116.204 74.3158C116.468 74.3158 116.707 74.3158 116.998 74.3158C116.998 73.7598 116.998 73.2303 116.998 72.7007C117.633 72.7007 118.242 72.7007 118.878 72.7007C118.878 73.2303 118.878 73.7333 118.878 74.2893C119.381 74.2893 119.857 74.2893 120.387 74.2893C120.387 74.7129 120.387 75.1101 120.387 75.5337C119.91 75.5337 119.407 75.5337 118.904 75.5337C118.904 76.3809 118.878 77.1752 118.904 77.996C118.904 78.3666 119.169 78.5255 119.54 78.4725C119.752 78.4461 119.937 78.3666 120.175 78.3137C120.308 78.7373 120.413 79.1609 120.546 79.5845C119.752 79.9817 118.931 80.1405 118.084 79.8228C117.369 79.5581 117.051 78.9756 117.051 78.2343C117.024 77.4665 117.051 76.6722 117.051 75.9044C116.998 75.772 116.998 75.6661 116.998 75.5337Z" fill="black"/>
<path d="M36.3252 79.8758C35.6898 79.8758 35.0544 79.8758 34.4189 79.8758C34.4189 77.3606 34.4189 74.8453 34.4189 72.3301C35.0544 72.3301 35.6898 72.3301 36.3252 72.3301C36.3252 74.8453 36.3252 77.3341 36.3252 79.8758Z" fill="black"/>
<path d="M70.0823 74.0511C70.6913 74.0511 71.3002 74.0511 71.9357 74.0511C71.9357 74.3423 71.9357 74.6071 71.9357 74.8719C72.4387 74.2894 73.0477 73.9452 73.8155 73.9452C73.8155 74.5012 73.8155 75.0572 73.8155 75.6397C73.6566 75.6397 73.4978 75.6397 73.3654 75.6397C72.4917 75.6926 71.9357 76.2486 71.9357 77.1223C71.9357 78.0225 71.9357 78.9227 71.9357 79.8494C71.3002 79.8494 70.6913 79.8494 70.0823 79.8494C70.0823 77.9431 70.0823 76.0103 70.0823 74.0511Z" fill="black"/>
<path d="M27.2969 74.0511C27.9058 74.0511 28.5148 74.0511 29.1502 74.0511C29.1502 74.3423 29.1502 74.6336 29.1502 75.0042C29.6268 74.2894 30.2357 73.9717 31.03 73.9452C31.03 74.5012 31.03 75.0572 31.03 75.5867C30.7388 75.6132 30.474 75.6397 30.2092 75.6926C29.5473 75.8515 29.1502 76.3545 29.1502 77.0429C29.1502 77.9696 29.1502 78.8962 29.1502 79.8494C28.5413 79.8494 27.9323 79.8494 27.2969 79.8494C27.2969 77.9431 27.2969 76.0103 27.2969 74.0511Z" fill="black"/>
<path d="M74.7157 74.0511C75.3246 74.0511 75.9336 74.0511 76.5425 74.0511C76.5425 75.9838 76.5425 77.9166 76.5425 79.8493C75.9336 79.8493 75.3511 79.8493 74.7157 79.8493C74.7157 77.943 74.7157 76.0103 74.7157 74.0511Z" fill="black"/>
<path d="M98.756 74.0511C99.3649 74.0511 99.9739 74.0511 100.583 74.0511C100.583 75.9838 100.583 77.9166 100.583 79.8758C99.9739 79.8758 99.3649 79.8758 98.756 79.8758C98.756 77.9431 98.756 76.0103 98.756 74.0511Z" fill="black"/>
<path d="M115.198 79.8759C114.562 79.8759 113.98 79.8759 113.371 79.8759C113.371 77.9431 113.371 76.0103 113.371 74.0776C113.98 74.0776 114.589 74.0776 115.198 74.0776C115.198 76.0103 115.198 77.9166 115.198 79.8759Z" fill="black"/>
<path d="M100.662 72.3566C100.662 72.939 100.265 73.3626 99.6827 73.3362C99.1002 73.3362 98.7031 72.939 98.7031 72.3301C98.7031 71.7741 99.1267 71.3505 99.6827 71.3505C100.239 71.3505 100.662 71.7741 100.662 72.3566Z" fill="black"/>
<path d="M114.297 73.3627C113.715 73.3627 113.318 72.9655 113.318 72.3831C113.318 71.8006 113.741 71.377 114.297 71.377C114.853 71.377 115.277 71.8006 115.277 72.3566C115.277 72.939 114.88 73.3362 114.297 73.3627Z" fill="black"/>
<path d="M76.6219 72.3566C76.6219 72.9655 76.2512 73.3627 75.6688 73.3627C75.0863 73.3627 74.6627 72.9655 74.6627 72.3831C74.6627 71.8006 75.0598 71.377 75.6423 71.377C76.1983 71.377 76.6219 71.7741 76.6219 72.3566Z" fill="black"/>
<path d="M79.4549 76.4339C79.5608 75.6926 80.0903 75.216 80.7258 75.2689C81.3877 75.3219 81.7583 75.772 81.7583 76.4339C80.9905 76.4339 80.2227 76.4339 79.4549 76.4339Z" fill="white"/>
</svg>
